<svg xmlns="http://www.w3.org/2000/svg" width="41.54" height="49.979" viewBox="0 0 41.54 49.979">
  <g id="Group_41154" data-name="Group 41154" transform="translate(-301.437 -481)">
    <g id="svgexport-10" transform="translate(283.934 481.5)">
      <path id="Path_78657" data-name="Path 78657" d="M58.52,46.933,55.54,13.742a1.758,1.758,0,0,0-1.751-1.6H47.642V9.369a9.368,9.368,0,1,0-18.737,0v2.772h-6.15A1.758,1.758,0,0,0,21,13.742L18.012,47.064a1.758,1.758,0,0,0,1.751,1.915H56.786a1.758,1.758,0,0,0,1.758-1.758A1.79,1.79,0,0,0,58.52,46.933ZM32.422,9.369a5.853,5.853,0,1,1,11.705,0v2.772H32.422ZM21.686,45.463l2.676-29.806h4.543V18.8a1.758,1.758,0,0,0,3.516,0V15.657H44.127V18.8a1.758,1.758,0,1,0,3.516,0V15.657h4.539l2.676,29.806H21.686Z" fill="#23a2a4" stroke="#fff" stroke-width="1"/>
    </g>
    <path id="Path_78658" data-name="Path 78658" d="M15.329,20.316h2.329v2.329a2.329,2.329,0,1,0,4.658,0V20.316h2.329a2.329,2.329,0,1,0,0-4.658H22.316V13.329a2.329,2.329,0,0,0-4.658,0v2.329H15.329a2.329,2.329,0,1,0,0,4.658Z" transform="translate(302.221 494.989)" fill="#23a2a4" stroke="#fff" stroke-width="2.5"/>
  </g>
</svg>
