<svg id="svgexport-6_54_" data-name="svgexport-6 (54)" xmlns="http://www.w3.org/2000/svg" width="26.086" height="24.572" viewBox="0 0 26.086 24.572">
  <g id="Group_40168" data-name="Group 40168" transform="translate(0 0)">
    <g id="Group_40167" data-name="Group 40167">
      <path id="Path_78164" data-name="Path 78164" d="M24.572,17.785a5.183,5.183,0,0,0-7.322,0l-12.2,12.2A3.106,3.106,0,1,0,9.441,34.38L19.2,24.618l-1.464-1.464L7.976,32.916a1.035,1.035,0,1,1-1.464-1.464l12.2-12.2a3.106,3.106,0,0,1,4.393,4.393l-12.2,12.2a5.177,5.177,0,0,1-7.322-7.322l12.2-12.2-1.464-1.464-12.2,12.2a7.248,7.248,0,0,0,10.25,10.25l12.2-12.2A5.183,5.183,0,0,0,24.572,17.785Z" transform="translate(0 -14.856)" fill="#23a2a4"/>
    </g>
  </g>
</svg>
