<svg xmlns="http://www.w3.org/2000/svg" width="138" height="138" viewBox="0 0 138 138">
  <g id="qrcode" transform="translate(1 0.776)">
    <rect id="qr_background" data-name="qr background" width="138" height="138" transform="translate(-1 -0.776)" fill="#fff"/>
    <path id="qr_dark_pixels" data-name="qr dark pixels" d="M46.066,0h5.118V5.118H46.066ZM61.421,0H66.54V5.118H76.777V0H87.013V10.237H81.895v5.118h5.118v5.118H81.895v5.118h5.118V40.947H81.895v5.118H76.777V40.947H71.658V30.711h5.118v5.118h5.118V30.711H76.777V10.237H66.54v5.118H61.421v5.118H46.066V15.355H40.947V5.118h5.118v5.118H56.3V5.118h5.118ZM40.947,20.474h5.118v5.118h5.118v5.118H46.066v5.118h5.118v5.118H40.947Zm25.592,0h5.118V30.711H66.54ZM56.3,25.592h5.118v5.118H56.3Zm-5.118,5.118H56.3v5.118H51.184Zm10.237,0H66.54V40.947h5.118v5.118h5.118v5.118H66.54V46.066H61.421ZM0,40.947H10.237v5.118h5.118V40.947h5.118V51.184h5.118V56.3h5.118v5.118H46.066V66.54H40.947v5.118H35.829V66.54H20.474V56.3H10.237V51.184H5.118V46.066H0Zm30.711,0H40.947v5.118H30.711Zm20.474,0H56.3v5.118h5.118v5.118H56.3V56.3H30.711V51.184H51.184Zm40.947,0h15.355v5.118H97.25V56.3H92.132V51.184H87.013V46.066h5.118Zm20.474,0h10.237v5.118H112.606Zm10.237,5.118h5.118V56.3H117.724V51.184h5.118ZM0,51.184H5.118V66.54H0Zm81.895,0h5.118V56.3H81.895ZM66.54,56.3h5.118v5.118H87.013V66.54h5.118V61.421h10.237V71.658h5.118V81.895h-5.118V76.777H97.25V71.658H81.895V66.54H76.777v5.118H71.658V66.54H66.54Zm20.474,0h5.118v5.118H87.013Zm15.355,0h5.118v5.118h-5.118ZM10.237,61.421h5.118V66.54h5.118v5.118h5.118V87.013H15.355V81.895h5.118V76.777H10.237V71.658H5.118V66.54h5.118Zm46.066,0h5.118V66.54H56.3Zm51.184,0h5.118V66.54h5.118V76.777h-5.118V71.658h-5.118Zm10.237,0h10.237V76.777h-5.118V66.54h-5.118ZM46.066,66.54H56.3v5.118H46.066ZM0,71.658H5.118v5.118H0Zm30.711,0h5.118v5.118H30.711Zm25.592,0h5.118v5.118H71.658v5.118H56.3ZM5.118,76.777h5.118V87.013H0V81.895H5.118Zm40.947,0h5.118v5.118H56.3v5.118h5.118v5.118H56.3V97.25H51.184V92.132H46.066V97.25H40.947V87.013h5.118Zm35.829,0H97.25v5.118H81.895Zm35.829,0h5.118v5.118h-5.118ZM30.711,81.895H40.947v5.118H30.711Zm40.947,0H81.895v20.474H76.777V97.25H66.54V87.013h5.118v5.118h5.118V87.013H71.658Zm35.829,0h10.237v5.118h-5.118V97.25h5.118v5.118h-5.118v5.118h5.118v10.237h-5.118v-5.118h-5.118v5.118H97.25V107.487h10.237Zm15.355,5.118h5.118v15.355h-5.118V97.25h-5.118V92.132h5.118ZM56.3,97.25h5.118v10.237H56.3v5.118H51.184v10.237H61.421v5.118H40.947V117.724h5.118v-5.118H40.947v-5.118H51.184v-5.118H56.3Zm10.237,5.118h5.118v5.118h5.118v5.118h5.118v5.118H97.25v5.118h5.118v5.118H66.54V117.724h5.118v5.118h5.118v-5.118H71.658v-5.118H66.54Zm51.184,0h5.118v5.118h-5.118Zm5.118,10.237h5.118v5.118h-5.118Zm-15.355,5.118h5.118v5.118h-5.118Zm10.237,5.118h10.237v5.118H117.724Z" transform="translate(4.118 4.087)" fill-rule="evenodd"/>
    <path id="qr_squares" data-name="qr squares" d="M0,0H35.829V35.829H0V0ZM5.118,5.118H30.711V30.711H5.118V5.118Zm5.118,5.118H25.592V25.592H10.237V10.237ZM92.132,0h35.829V35.829H92.132V0ZM97.25,5.118h25.592V30.711H97.25V5.118Zm5.118,5.118h15.355V25.592H102.369V10.237ZM0,92.132H35.829v35.829H0V92.132ZM5.118,97.25H30.711v25.592H5.118V97.25Zm5.118,5.118H25.592v15.355H10.237V102.369ZM81.895,81.895h25.592v25.592H81.895V81.895Zm5.118,5.118h15.355v15.355H87.013V87.013Zm5.118,5.118H97.25V97.25H92.132V92.132Z" transform="translate(4.118 4.087)" fill-rule="evenodd"/>
  </g>
</svg>
