<svg xmlns="http://www.w3.org/2000/svg" width="21.822" height="26.187" viewBox="0 0 21.822 26.187">
  <g id="svgexport-7" transform="translate(-2)">
    <g id="Group_40229" data-name="Group 40229" transform="translate(2 0)">
      <path id="Path_78194" data-name="Path 78194" d="M23.145,18.454a7.308,7.308,0,0,1-2.6-5.592V9.82A7.644,7.644,0,0,0,14,2.269V1.091a1.091,1.091,0,1,0-2.182,0V2.269A7.643,7.643,0,0,0,5.273,9.82v3.042a7.316,7.316,0,0,1-2.606,5.6,1.909,1.909,0,0,0,1.242,3.36h18a1.909,1.909,0,0,0,1.232-3.368Z" transform="translate(-2 0)" fill="#23a2a4"/>
      <path id="Path_78195" data-name="Path 78195" d="M12.335,24.273A4.1,4.1,0,0,0,16.343,21H8.326A4.1,4.1,0,0,0,12.335,24.273Z" transform="translate(-1.424 1.913)" fill="#23a2a4"/>
    </g>
  </g>
</svg>
