<svg xmlns="http://www.w3.org/2000/svg" xmlns:xlink="http://www.w3.org/1999/xlink" width="121.518" height="115.488" viewBox="0 0 121.518 115.488">
  <defs>
    <filter id="ashkan-forouzani-l-NIPb-9Njg-unsplash" x="0" y="0" width="121.518" height="115.488" filterUnits="userSpaceOnUse">
      <feOffset dy="3" input="SourceAlpha"/>
      <feGaussianBlur stdDeviation="3" result="blur"/>
      <feFlood flood-color="#f0f4fc"/>
      <feComposite operator="in" in2="blur"/>
      <feComposite in="SourceGraphic"/>
    </filter>
  </defs>
  <g id="Group_40369" data-name="Group 40369" transform="translate(-1628 -792)">
    <g transform="matrix(1, 0, 0, 1, 1628, 792)" filter="url(#ashkan-forouzani-l-NIPb-9Njg-unsplash)">
      <g id="ashkan-forouzani-l-NIPb-9Njg-unsplash-2" data-name="ashkan-forouzani-l-NIPb-9Njg-unsplash" transform="translate(9 6)" fill="#90d0d1" stroke="#23a2a4" stroke-width="2">
        <rect width="103.518" height="97.488" rx="12" stroke="none"/>
        <rect x="1" y="1" width="101.518" height="95.488" rx="11" fill="none"/>
      </g>
    </g>
    <g id="svgexport-6_5_" data-name="svgexport-6 (5)" transform="translate(1658 791.64)">
      <g id="Group_40990" data-name="Group 40990" transform="translate(0 26.36)">
        <path id="Path_78620" data-name="Path 78620" d="M42.823,33.961,45.663,38l-4.582,3.219,12.082,17.2L57.744,55.2l4.4,6.268,3.089-2.17-4.4-6.268,4.582-3.219-12.082-17.2-4.582,3.219-2.84-4.041,3.334-2.342-2.17-3.089-9.756,6.855,2.17,3.089Zm11.258,19.2L51.3,49.194l6.075-4.268,2.785,3.964ZM55.2,41.837l-6.075,4.268L46.34,42.141l6.075-4.268Z" transform="translate(-32.623 -26.36)" fill="#fff"/>
        <path id="Path_78621" data-name="Path 78621" d="M52.075,82.863A12.976,12.976,0,0,0,36.563,92.63l-.418,1.841,3.8.865L35.56,114.641H21.747c-3.91-4.395-9.279-6.226-15.078-5.915v4.153H0v12.669L4.811,131H50.555l7.187-31.621,3.681.837.418-1.841A12.976,12.976,0,0,0,52.075,82.863Zm-4.533,44.362H6.515l-2.739-3.1v-7.466h6.67V112.63a14.47,14.47,0,0,1,9.586,5.786H38.574L43.63,96.172l10.43,2.371ZM40.852,91.669a9.2,9.2,0,0,1,17.536,3.985Z" transform="translate(0 -75.47)" fill="#fff"/>
      </g>
    </g>
  </g>
</svg>
