<svg id="Group_40683" data-name="Group 40683" xmlns="http://www.w3.org/2000/svg" xmlns:xlink="http://www.w3.org/1999/xlink" width="203.103" height="104.883" viewBox="0 0 203.103 104.883">
  <defs>
    <clipPath id="clip-path">
      <rect id="Rectangle_22573" data-name="Rectangle 22573" width="203.103" height="104.883" fill="#fff"/>
    </clipPath>
    <clipPath id="clip-path-3">
      <path id="Path_78561" data-name="Path 78561" d="M0,0V11.933H41.806a5.939,5.939,0,0,1,2.36.471,6.149,6.149,0,0,1,1.888,1.286,5.525,5.525,0,0,1,1.259,1.889,5.693,5.693,0,0,1,.473,2.334,5.787,5.787,0,0,1-.473,2.334,5.54,5.54,0,0,1-1.259,1.889,6.171,6.171,0,0,1-1.888,1.284c-.026,0-.052.026-.079.026a6.542,6.542,0,0,1-2.282.42H0v11.96H41.806a5.887,5.887,0,0,1,2.36.473,6.093,6.093,0,0,1,1.888,1.258,5.918,5.918,0,0,1,1.259,1.915,5.935,5.935,0,0,1,0,4.642,5.911,5.911,0,0,1-1.259,1.914,6.677,6.677,0,0,1-1.888,1.286,5.94,5.94,0,0,1-2.36.473H0V59.718H41.806a17.944,17.944,0,0,0,7-1.389,18.194,18.194,0,0,0,9.547-9.547,17.945,17.945,0,0,0,1.39-7,17.471,17.471,0,0,0-1.181-6.374A17.246,17.246,0,0,0,55.1,29.871c.237-.236.446-.5.657-.734a17.246,17.246,0,0,0,1.284-1.809,17.938,17.938,0,0,0,1.312-16.392A18,18,0,0,0,54.5,5.219,17.688,17.688,0,0,0,48.809,1.39a17.459,17.459,0,0,0-7-1.39Z" fill="#fff"/>
    </clipPath>
    <clipPath id="clip-path-5">
      <rect id="Rectangle_22563" data-name="Rectangle 22563" width="59.746" height="27.329" fill="#fff"/>
    </clipPath>
    <clipPath id="clip-path-6">
      <rect id="Rectangle_22564" data-name="Rectangle 22564" width="5.954" height="3.121" fill="#fff"/>
    </clipPath>
    <clipPath id="clip-path-7">
      <path id="Path_78565" data-name="Path 78565" d="M88.407,0A17.246,17.246,0,0,0,81.98,1.179a16.786,16.786,0,0,0-5.507,3.436,17.012,17.012,0,0,0-5.56-3.436,18.081,18.081,0,0,0-13.376.211,17.73,17.73,0,0,0-9.547,9.546,17.355,17.355,0,0,0-1.416,6.977v41.8H58.56v-41.8a5.681,5.681,0,0,1,.446-2.334A5.872,5.872,0,0,1,62.179,12.4a5.72,5.72,0,0,1,2.332-.471,5.814,5.814,0,0,1,2.336.471,6.174,6.174,0,0,1,1.889,1.286,5.607,5.607,0,0,1,1.284,1.889,6.173,6.173,0,0,1,.446,2.334v41.8h11.96v-41.8a5.693,5.693,0,0,1,.473-2.334,5.543,5.543,0,0,1,1.258-1.889A6.174,6.174,0,0,1,86.046,12.4a5.938,5.938,0,0,1,2.36-.471,5.688,5.688,0,0,1,2.308.471,6.049,6.049,0,0,1,3.2,3.175,5.693,5.693,0,0,1,.473,2.334v41.8h11.932v-41.8a17.817,17.817,0,0,0-1.389-6.977,18,18,0,0,0-3.855-5.717A17.7,17.7,0,0,0,95.383,1.39,17.334,17.334,0,0,0,88.407,0Z" transform="translate(-46.574)" fill="#fff"/>
    </clipPath>
    <clipPath id="clip-path-9">
      <rect id="Rectangle_22567" data-name="Rectangle 22567" width="59.746" height="32.941" fill="#fff"/>
    </clipPath>
    <clipPath id="clip-path-10">
      <rect id="Rectangle_22568" data-name="Rectangle 22568" width="5.954" height="3.147" fill="#fff"/>
    </clipPath>
    <clipPath id="clip-path-11">
      <path id="Path_78569" data-name="Path 78569" d="M111.052,0a17.334,17.334,0,0,0-6.976,1.39,17.734,17.734,0,0,0-9.546,9.546,17.355,17.355,0,0,0-1.416,6.977V41.78a17.478,17.478,0,0,0,1.416,7,17.7,17.7,0,0,0,3.829,5.692,18,18,0,0,0,5.717,3.855,17.815,17.815,0,0,0,6.976,1.389h41.806V47.786H111.052a5.721,5.721,0,0,1-2.333-.473,5.82,5.82,0,0,1-3.175-3.2,5.722,5.722,0,0,1-.471-2.334V17.913a5.717,5.717,0,0,1,.471-2.334,5.881,5.881,0,0,1,3.175-3.175,5.721,5.721,0,0,1,2.333-.471h41.806V0Z" transform="translate(-93.114)" fill="#fff"/>
    </clipPath>
    <clipPath id="clip-path-13">
      <rect id="Rectangle_22571" data-name="Rectangle 22571" width="59.745" height="27.984" fill="#fff"/>
    </clipPath>
  </defs>
  <g id="Group_40682" data-name="Group 40682" clip-path="url(#clip-path)">
    <g id="Group_40654" data-name="Group 40654" transform="translate(0 0)">
      <g id="Group_40653" data-name="Group 40653" clip-path="url(#clip-path)">
        <path id="Path_78522" data-name="Path 78522" d="M5.593,57.736a1.029,1.029,0,0,0,.354-.831,1.116,1.116,0,0,0-.345-.85,1.154,1.154,0,0,0-.822-.308,1.156,1.156,0,0,0-.822.308,1.122,1.122,0,0,0-.345.85,1.025,1.025,0,0,0,.345.831,1.212,1.212,0,0,0,1.635,0" transform="translate(1.95 30.081)" fill="#fff"/>
        <path id="Path_78523" data-name="Path 78523" d="M3.937,57.736a1.029,1.029,0,0,0,.354-.831,1.116,1.116,0,0,0-.345-.85,1.154,1.154,0,0,0-.822-.308,1.156,1.156,0,0,0-.822.308,1.122,1.122,0,0,0-.345.85,1.025,1.025,0,0,0,.345.831,1.172,1.172,0,0,0,.822.317,1.16,1.16,0,0,0,.813-.317" transform="translate(1.056 30.081)" fill="#fff"/>
        <path id="Path_78524" data-name="Path 78524" d="M11.422,55.565a1.027,1.027,0,0,0,.356-.831,1.117,1.117,0,0,0-.346-.85,1.252,1.252,0,0,0-1.644,0,1.122,1.122,0,0,0-.345.85,1.027,1.027,0,0,0,.345.831,1.179,1.179,0,0,0,.822.317,1.165,1.165,0,0,0,.813-.317" transform="translate(5.095 28.91)" fill="#fff"/>
        <path id="Path_78525" data-name="Path 78525" d="M39.332,54.273V43.589l-2.325.794v9.441a1.734,1.734,0,0,1-.059.523.388.388,0,0,1-.391.3H33.719a.391.391,0,0,1-.393-.3,1.754,1.754,0,0,1-.055-.523c-.014-.847-.049-1.563-.112-2.148a10.253,10.253,0,0,0-.346-1.794l-.008.009v-.018H26.417a2.464,2.464,0,0,0-1.393.5,5.167,5.167,0,0,0-1.119,1.1A9.047,9.047,0,0,0,22.9,53.087V43.58l-2.336.8V54.647H17.274a.39.39,0,0,1-.393-.3,1.8,1.8,0,0,1-.057-.523V49.874l-2.325.8v3.306a.986.986,0,0,1-.083.439.382.382,0,0,1-.365.225H7.085l-.878,2.334H8.551a3.319,3.319,0,0,1-2.026,1.84,3.521,3.521,0,0,1-2.494-.092,2.908,2.908,0,0,1-1.718-1.672,3.692,3.692,0,0,1-.149-1.9,6.384,6.384,0,0,1,.58-1.784L.828,52.685a7.918,7.918,0,0,0-.785,3.726A4.946,4.946,0,0,0,1.472,59.8a5.171,5.171,0,0,0,1.915,1.187,6.235,6.235,0,0,0,2.148.354A5.192,5.192,0,0,0,9,60.081a5.65,5.65,0,0,0,1.886-3.1h2.708a4.244,4.244,0,0,0,2.063-.411,4.311,4.311,0,0,0,2.074.411H29.656a4.643,4.643,0,0,0,2.166-.43l.132-.074a2.79,2.79,0,0,0,.83.411,3.682,3.682,0,0,0,.935.092h2.839a3.651,3.651,0,0,0,1.129-.14,2.42,2.42,0,0,0,.925-.607,2.646,2.646,0,0,0,.721-1.961m-8.928.243a4.445,4.445,0,0,1-1.363.131H24.39a7.314,7.314,0,0,1,.85-1.27,4.489,4.489,0,0,1,.931-.878,2.109,2.109,0,0,1,1.15-.4h3.613l.068.841c0,.155.008.311.008.466a1.051,1.051,0,0,1-.607,1.112" transform="translate(0.019 23.516)" fill="#fff"/>
        <path id="Path_78526" data-name="Path 78526" d="M29.834,57.015a.875.875,0,0,1-.188-.476,2.88,2.88,0,0,1-.046-.551v-12.4l-2.334.785V56.436a2.648,2.648,0,0,0,.719,1.961Z" transform="translate(14.713 23.518)" fill="#fff"/>
        <path id="Path_78527" data-name="Path 78527" d="M44.663,52.2a8.057,8.057,0,0,0,.029-2.373,15.506,15.506,0,0,0-.43-2.157H37.5v6.771a2.039,2.039,0,0,1-.385,1.4,1.553,1.553,0,0,1-1.232.43l.177,1.989a4.989,4.989,0,0,0,1.84-.289,2.779,2.779,0,0,0,1.757-1.961,5.3,5.3,0,0,0,.168-1.233h1.13a6.235,6.235,0,0,0,1.418-.14,3.26,3.26,0,0,0,1.309-.607,3.033,3.033,0,0,0,.979-1.831m-2.52.009a3.421,3.421,0,0,1-1.466.234h-.841V50h2.821a6.609,6.609,0,0,1,.094,1.027,1.2,1.2,0,0,1-.608,1.176" transform="translate(19.364 25.722)" fill="#fff"/>
        <path id="Path_78528" data-name="Path 78528" d="M65.845,56.231a2.646,2.646,0,0,0,.719-1.961v-4.4l-2.325.8v3.147a1.744,1.744,0,0,1-.057.523.389.389,0,0,1-.391.3H60.952a.39.39,0,0,1-.393-.3,1.8,1.8,0,0,1-.057-.523v-3.96l-2.268.8v2.288a2.924,2.924,0,0,1-.291,1.541,1.018,1.018,0,0,1-.961.448,2.2,2.2,0,0,1-1.047-.308,6.1,6.1,0,0,0,.179-1.569v-3.2l-2.279.8v2.288a3.087,3.087,0,0,1-.28,1.541,1.1,1.1,0,0,1-.861.457,3.053,3.053,0,0,1-.99-.085V49.861l-2.259.8v3.39c-.038.391-.2.588-.487.588H46.141a.384.384,0,0,1-.383-.3,1.8,1.8,0,0,1-.057-.523V43.586l-2.334.607V54.269a2.613,2.613,0,0,0,.774,1.971,2.748,2.748,0,0,0,1.991.737H48.97a3.726,3.726,0,0,0,.691-.055,3.793,3.793,0,0,0,.645-.225,2.5,2.5,0,0,0,1.093.28h1.326a3.659,3.659,0,0,0,2.3-.831,4.208,4.208,0,0,0,2.288.728,3.869,3.869,0,0,0,1.868-.41,2.771,2.771,0,0,0,.831.41,3.6,3.6,0,0,0,.944.1h2.382a5.562,5.562,0,0,0,1.353-.14,2.451,2.451,0,0,0,1.158-.607" transform="translate(23.401 23.519)" fill="#fff"/>
        <path id="Path_78529" data-name="Path 78529" d="M58.876,54.734a1.119,1.119,0,0,0-.345-.85,1.252,1.252,0,0,0-1.644,0,1.119,1.119,0,0,0-.345.85,1.029,1.029,0,0,0,.345.831,1.212,1.212,0,0,0,1.635,0,1.033,1.033,0,0,0,.354-.831" transform="translate(30.51 28.91)" fill="#fff"/>
        <path id="Path_78530" data-name="Path 78530" d="M71.033,56.008a6.121,6.121,0,0,0,.179-1.456V47.668l-2.336.794v5.977a2.048,2.048,0,0,1-.382,1.4,1.492,1.492,0,0,1-1.093.439,2.932,2.932,0,0,1-1.215-.2,6.9,6.9,0,0,1-.925-.459l-.784,1.812a4.972,4.972,0,0,0,1.213.579,5.484,5.484,0,0,0,1.784.262,4.741,4.741,0,0,0,1.8-.308,2.783,2.783,0,0,0,1.755-1.961" transform="translate(34.792 25.722)" fill="#fff"/>
        <path id="Path_78531" data-name="Path 78531" d="M79.842,47.681a1.161,1.161,0,0,0,.811-.317,1.029,1.029,0,0,0,.356-.831,1.117,1.117,0,0,0-.345-.85,1.252,1.252,0,0,0-1.644,0,1.113,1.113,0,0,0-.346.85,1.023,1.023,0,0,0,.346.831,1.179,1.179,0,0,0,.822.317" transform="translate(42.452 24.484)" fill="#fff"/>
        <path id="Path_78532" data-name="Path 78532" d="M78.184,47.681A1.167,1.167,0,0,0,79,47.364a1.029,1.029,0,0,0,.356-.831,1.118,1.118,0,0,0-.346-.85,1.252,1.252,0,0,0-1.644,0,1.117,1.117,0,0,0-.345.85,1.027,1.027,0,0,0,.345.831,1.179,1.179,0,0,0,.822.317" transform="translate(41.559 24.484)" fill="#fff"/>
        <path id="Path_78533" data-name="Path 78533" d="M96.784,53.512A2.661,2.661,0,0,0,96.54,52.5a3.2,3.2,0,0,0-1.316-1.4,14.689,14.689,0,0,0-1.877-.765c-.162-.051-.482-.165-.962-.346q-1.242-.457-2.175-.9a.389.389,0,0,1,.046-.487,1.683,1.683,0,0,1,.42-.326L94.4,45.976l-.57-2.391-4.771,2.97a2.688,2.688,0,0,0-1.279,1.654,2.431,2.431,0,0,0,.1,1.3,5.86,5.86,0,0,0,.6,1.222,8.705,8.705,0,0,0,1.082.523q.533.224,1.746.691.739.279,1.832.719a2.962,2.962,0,0,1,1.222.71,1.16,1.16,0,0,1,.1,1.27H84.447a.392.392,0,0,1-.393-.3A1.807,1.807,0,0,1,84,53.82V49.87l-2.325.8v3.306a1,1,0,0,1-.085.44.381.381,0,0,1-.365.223h-3.23V49.879H71.242a15.292,15.292,0,0,0-.42,2.159,7.512,7.512,0,0,0,.028,2.362,2.984,2.984,0,0,0,.972,1.831,3.262,3.262,0,0,0,1.309.608,6.255,6.255,0,0,0,1.418.139h1.112a1.739,1.739,0,0,1-.382,1.065,1.483,1.483,0,0,1-1.1.439,3.014,3.014,0,0,1-1.205-.2,6.878,6.878,0,0,1-.924-.457l-.785,1.811a4.956,4.956,0,0,0,1.215.579,5.775,5.775,0,0,0,3.586-.046,2.805,2.805,0,0,0,1.757-1.961,5.945,5.945,0,0,0,.168-1.233h2.782a4.256,4.256,0,0,0,2.065-.41,4.3,4.3,0,0,0,2.072.41h10.88a6.619,6.619,0,0,0,1-3.464m-21.125,1.13h-.831a3.313,3.313,0,0,1-1.456-.234,1.2,1.2,0,0,1-.616-1.176,6.607,6.607,0,0,1,.092-1.027h2.811Z" transform="translate(38.173 23.518)" fill="#fff"/>
        <path id="Path_78534" data-name="Path 78534" d="M100.244,53.821a1.744,1.744,0,0,1-.057.523.389.389,0,0,1-.391.3H96.881a.375.375,0,0,1-.345-.186.883.883,0,0,1-.1-.411,7.354,7.354,0,0,0,.074-1.028q0-.467-.046-1.073-.1-1.009-.308-2.074h-5.6l-.821,2.336H94.3l.055.607c.012.149.018.349.018.6a1.12,1.12,0,0,1-.448,1.065,3.88,3.88,0,0,1-1.512.168H89.485v2.334h3.193a4.7,4.7,0,0,0,2.409-.5,2.167,2.167,0,0,0,.8.411,4.028,4.028,0,0,0,.971.092H99.8a3.669,3.669,0,0,0,1.13-.14,2.438,2.438,0,0,0,.924-.607,2.646,2.646,0,0,0,.719-1.961V43.586l-2.325.793Z" transform="translate(48.287 23.519)" fill="#fff"/>
        <path id="Path_78535" data-name="Path 78535" d="M102.258,57.015a.864.864,0,0,1-.186-.476,2.871,2.871,0,0,1-.048-.551v-12.4l-2.334.785V56.436a2.654,2.654,0,0,0,.719,1.961Z" transform="translate(53.793 23.518)" fill="#fff"/>
        <path id="Path_78536" data-name="Path 78536" d="M110.757,47.621a1.167,1.167,0,0,0,.813-.317,1.029,1.029,0,0,0,.356-.831,1.118,1.118,0,0,0-.346-.85,1.252,1.252,0,0,0-1.644,0,1.117,1.117,0,0,0-.345.85,1.029,1.029,0,0,0,.345.831,1.179,1.179,0,0,0,.822.317" transform="translate(59.135 24.452)" fill="#fff"/>
        <path id="Path_78537" data-name="Path 78537" d="M115.7,56.977h9.918a6.623,6.623,0,0,0,1-3.464,2.7,2.7,0,0,0-.242-1.01,3.2,3.2,0,0,0-1.318-1.4,14.853,14.853,0,0,0-1.877-.767q-.242-.074-.962-.345-1.24-.457-2.175-.9a.387.387,0,0,1,.046-.485,1.678,1.678,0,0,1,.42-.326l3.727-2.308-.57-2.389-4.773,2.97a2.69,2.69,0,0,0-1.279,1.652,2.429,2.429,0,0,0,.1,1.3,5.907,5.907,0,0,0,.6,1.224,8.943,8.943,0,0,0,1.082.523q.533.224,1.747.69.737.282,1.831.721a2.935,2.935,0,0,1,1.222.71,1.16,1.16,0,0,1,.1,1.27H113.836V49.871l-2.336.793v5.978a2.04,2.04,0,0,1-.382,1.4,1.5,1.5,0,0,1-1.093.439,2.908,2.908,0,0,1-1.215-.2,6.788,6.788,0,0,1-.924-.457l-.784,1.812a5.028,5.028,0,0,0,1.213.579,5.484,5.484,0,0,0,1.784.262,4.733,4.733,0,0,0,1.8-.308,2.785,2.785,0,0,0,1.757-1.961,5.217,5.217,0,0,0,.168-1.233H115.7Z" transform="translate(57.793 23.519)" fill="#fff"/>
        <path id="Path_78538" data-name="Path 78538" d="M138.061,49.825a15.507,15.507,0,0,0-.43-2.157h-6.76v4.773h-3.737V47.668l-2.336.794v5.977a2.048,2.048,0,0,1-.382,1.4,1.492,1.492,0,0,1-1.093.439,2.908,2.908,0,0,1-1.215-.2,6.789,6.789,0,0,1-.924-.457l-.784,1.812a5.028,5.028,0,0,0,1.213.579,5.48,5.48,0,0,0,1.783.262,4.735,4.735,0,0,0,1.8-.308,2.783,2.783,0,0,0,1.755-1.961,5.142,5.142,0,0,0,.169-1.233h7.2a6.259,6.259,0,0,0,1.42-.14,3.273,3.273,0,0,0,1.307-.607,3.042,3.042,0,0,0,.981-1.831,8.01,8.01,0,0,0,.028-2.373m-2.55,2.382a3.411,3.411,0,0,1-1.466.234h-.841V50h2.821a6.611,6.611,0,0,1,.094,1.027,1.2,1.2,0,0,1-.608,1.176" transform="translate(64.97 25.722)" fill="#fff"/>
        <path id="Path_78539" data-name="Path 78539" d="M8.574,62.03a6.893,6.893,0,0,0-4.483-1.307,20.26,20.26,0,0,0-3.324.262V71.556a17.35,17.35,0,0,0,3.259.271,6.858,6.858,0,0,0,4.557-1.372,5.2,5.2,0,0,0,1.681-4.194,5.18,5.18,0,0,0-1.69-4.231m-1.727,6.78a3.651,3.651,0,0,1-2.708.925c-.468,0-.779-.011-.935-.029V62.852a8.782,8.782,0,0,1,1.008-.046,3.639,3.639,0,0,1,2.682.868,3.549,3.549,0,0,1,.839,2.587,3.451,3.451,0,0,1-.887,2.55" transform="translate(0.414 32.766)" fill="#fff"/>
        <path id="Path_78540" data-name="Path 78540" d="M11.408,62.688a9.456,9.456,0,0,0-3.259.588v7.509H10.4V64.723a4.209,4.209,0,0,1,.953-.122,6.659,6.659,0,0,1,1.578.243l.373-1.858a4.464,4.464,0,0,0-.942-.214,7.244,7.244,0,0,0-.953-.085" transform="translate(4.397 33.826)" fill="#fff"/>
        <path id="Path_78541" data-name="Path 78541" d="M13.85,66.243a1.14,1.14,0,0,0-.794.289,1.048,1.048,0,0,0-.345.822,1.074,1.074,0,0,0,.345.841,1.14,1.14,0,0,0,.794.289,1.121,1.121,0,0,0,.784-.289,1.07,1.07,0,0,0,.346-.841,1.044,1.044,0,0,0-.346-.822,1.121,1.121,0,0,0-.784-.289" transform="translate(6.859 35.745)" fill="#fff"/>
        <path id="Path_78542" data-name="Path 78542" d="M24.917,65.841a2.3,2.3,0,0,0,1.252-2.055,2.582,2.582,0,0,0-1.327-2.409,7.078,7.078,0,0,0-3.407-.653,18,18,0,0,0-3.307.28V71.537a17.813,17.813,0,0,0,3.615.317q4.958,0,4.959-3.436a2.528,2.528,0,0,0-1.784-2.577m-4.408-3.092a12.583,12.583,0,0,1,1.318-.048,3.1,3.1,0,0,1,1.475.271.969.969,0,0,1,.5.916,1,1,0,0,1-.485.933,3.351,3.351,0,0,1-1.617.289H20.509Zm1.27,7.107a12.1,12.1,0,0,1-1.27-.066V66.98H22.05q2.175,0,2.175,1.39,0,1.487-2.446,1.486" transform="translate(9.781 32.766)" fill="#fff"/>
        <path id="Path_78543" data-name="Path 78543" d="M28.187,62.633a10.143,10.143,0,0,0-1.456.122,7.024,7.024,0,0,0-1.1.252l.28,1.764a6.054,6.054,0,0,1,2.035-.308q1.5,0,1.5,1.252v.2a4.972,4.972,0,0,0-1.289-.14,4.19,4.19,0,0,0-2.251.542,2.079,2.079,0,0,0-1,1.9,2.227,2.227,0,0,0,.907,1.989,4.187,4.187,0,0,0,2.408.57,14.231,14.231,0,0,0,3.316-.391V65.808a3.332,3.332,0,0,0-.7-2.325,3.5,3.5,0,0,0-2.653-.85m1.261,6.388a7.4,7.4,0,0,1-1.084.057q-1.289,0-1.289-.916a.763.763,0,0,1,.448-.719,2.307,2.307,0,0,1,1.047-.177,3.628,3.628,0,0,1,.878.083Z" transform="translate(13.441 33.797)" fill="#fff"/>
        <path id="Path_78544" data-name="Path 78544" d="M34.061,65.823a5.125,5.125,0,0,1-.961-.476.493.493,0,0,1-.225-.44c0-.391.351-.588,1.055-.588a5.885,5.885,0,0,1,1.9.337l.4-1.766a7.4,7.4,0,0,0-2.457-.4,3.611,3.611,0,0,0-2.288.654,2.136,2.136,0,0,0-.831,1.774,2.235,2.235,0,0,0,.634,1.692,5.148,5.148,0,0,0,1.69.924,7.354,7.354,0,0,1,1.018.457.6.6,0,0,1,.328.487.461.461,0,0,1-.253.457,2.194,2.194,0,0,1-.878.122,6.427,6.427,0,0,1-2.391-.477l-.373,1.831a7.07,7.07,0,0,0,2.754.5,4.347,4.347,0,0,0,2.5-.608,2.046,2.046,0,0,0,.887-1.792,2.28,2.28,0,0,0-.5-1.569,4.818,4.818,0,0,0-2.008-1.112" transform="translate(16.42 33.719)" fill="#fff"/>
        <path id="Path_78545" data-name="Path 78545" d="M39.265,65.823a5.124,5.124,0,0,1-.961-.476.493.493,0,0,1-.225-.44c0-.391.351-.588,1.055-.588a5.885,5.885,0,0,1,1.9.337l.4-1.766a7.4,7.4,0,0,0-2.457-.4,3.611,3.611,0,0,0-2.288.654,2.136,2.136,0,0,0-.831,1.774,2.23,2.23,0,0,0,.636,1.692,5.12,5.12,0,0,0,1.689.924,7.481,7.481,0,0,1,1.019.457.6.6,0,0,1,.326.487.459.459,0,0,1-.252.457,2.194,2.194,0,0,1-.878.122,6.427,6.427,0,0,1-2.391-.477l-.373,1.831a7.07,7.07,0,0,0,2.754.5,4.347,4.347,0,0,0,2.5-.608,2.046,2.046,0,0,0,.887-1.792,2.28,2.28,0,0,0-.5-1.569,4.818,4.818,0,0,0-2.008-1.112" transform="translate(19.228 33.719)" fill="#fff"/>
        <path id="Path_78546" data-name="Path 78546" d="M44.116,62.633a10.18,10.18,0,0,0-1.458.122,7.04,7.04,0,0,0-1.1.252l.28,1.764a6.055,6.055,0,0,1,2.035-.308q1.5,0,1.5,1.252v.2a4.981,4.981,0,0,0-1.289-.14,4.19,4.19,0,0,0-2.251.542,2.079,2.079,0,0,0-1,1.9,2.23,2.23,0,0,0,.905,1.989,4.2,4.2,0,0,0,2.409.57,14.231,14.231,0,0,0,3.316-.391V65.808a3.324,3.324,0,0,0-.7-2.325,3.5,3.5,0,0,0-2.651-.85m1.261,6.388a7.4,7.4,0,0,1-1.084.057Q43,69.078,43,68.162a.763.763,0,0,1,.448-.719,2.307,2.307,0,0,1,1.047-.177,3.636,3.636,0,0,1,.878.083Z" transform="translate(22.036 33.797)" fill="#fff"/>
        <path id="Path_78547" data-name="Path 78547" d="M54.231,62.628a3.8,3.8,0,0,0-2.288.756,3.311,3.311,0,0,0-2.3-.756,11.024,11.024,0,0,0-1.784.14,14.254,14.254,0,0,0-1.5.317v7.733h2.271V64.645a5.746,5.746,0,0,1,.878-.083,1.044,1.044,0,0,1,.97.457,3.149,3.149,0,0,1,.282,1.56v4.24h2.268V66.448a5.757,5.757,0,0,0-.168-1.569,1.964,1.964,0,0,1,1.047-.317,1.049,1.049,0,0,1,.971.457,3.173,3.173,0,0,1,.279,1.56v4.24h2.271V66.3a4.45,4.45,0,0,0-.645-2.653,2.97,2.97,0,0,0-2.55-1.018" transform="translate(25.014 33.794)" fill="#fff"/>
        <path id="Path_78548" data-name="Path 78548" d="M69.078,60.729H66.8q-.552,1.009-1.456,2.988-.635,1.4-1.56,3.633-1.316-3.062-1.569-3.633-.859-1.914-1.447-2.988H58.376q-.307,2-.542,5.324-.215,2.988-.346,5.789h2.439q.129-4.277.363-7.378.3.672.645,1.486l.7,1.644q.5,1.212,1.213,2.837H64.6l2.55-5.968q.233,2.859.373,7.378h2.437q-.129-2.8-.345-5.789-.206-2.868-.533-5.324" transform="translate(31.021 32.769)" fill="#fff"/>
        <path id="Path_78549" data-name="Path 78549" d="M70.516,62.628a3.476,3.476,0,0,0-2.559,1.036,4.2,4.2,0,0,0-1.158,3.11,3.956,3.956,0,0,0,1,2.867,4.074,4.074,0,0,0,3.1,1.167A8.367,8.367,0,0,0,72.5,70.64a5.246,5.246,0,0,0,1.13-.317l-.3-1.794a4.853,4.853,0,0,1-.953.28,6.02,6.02,0,0,1-1.195.112,2.509,2.509,0,0,1-1.493-.4,1.42,1.42,0,0,1-.636-1.073h4.987a7.123,7.123,0,0,0,.046-.831,4.236,4.236,0,0,0-.972-2.979,3.371,3.371,0,0,0-2.605-1.008m-1.456,3.306a2.054,2.054,0,0,1,.42-1.027,1.323,1.323,0,0,1,1.073-.457,1.286,1.286,0,0,1,1.065.466,1.8,1.8,0,0,1,.354,1.018Z" transform="translate(36.045 33.794)" fill="#fff"/>
        <path id="Path_78550" data-name="Path 78550" d="M77.82,64.177a3.756,3.756,0,0,0-1.635-.346,3.12,3.12,0,0,0-2.557,1.093,4.534,4.534,0,0,0-.879,2.97,4.153,4.153,0,0,0,1.075,2.951,3.917,3.917,0,0,0,3.007,1.149,11.842,11.842,0,0,0,1.718-.14,9.536,9.536,0,0,0,1.5-.317V60.8l-2.232-.365Zm0,5.837a3.673,3.673,0,0,1-.971.094,1.624,1.624,0,0,1-1.373-.627,2.677,2.677,0,0,1-.448-1.654q0-2.118,1.578-2.118a2.188,2.188,0,0,1,1.215.308Z" transform="translate(39.256 32.609)" fill="#fff"/>
        <path id="Path_78551" data-name="Path 78551" d="M80.59,62.29a1.028,1.028,0,0,0,.316-.785,1.057,1.057,0,0,0-.316-.793,1.1,1.1,0,0,0-.767-.28,1.079,1.079,0,0,0-.767.28,1.042,1.042,0,0,0-.326.793,1.014,1.014,0,0,0,.326.785,1.16,1.16,0,0,0,1.533,0" transform="translate(42.483 32.609)" fill="#fff"/>
        <rect id="Rectangle_22560" data-name="Rectangle 22560" width="2.269" height="8.172" transform="translate(121.176 96.439)" fill="#fff"/>
        <path id="Path_78552" data-name="Path 78552" d="M85.652,68.919a1.953,1.953,0,0,1-1.569-.57,2.5,2.5,0,0,1-.448-1.635,2.408,2.408,0,0,1,.476-1.587,1.785,1.785,0,0,1,1.456-.607,4.183,4.183,0,0,1,1.5.3l.457-1.764a5.637,5.637,0,0,0-2.139-.42,3.8,3.8,0,0,0-2.933,1.195,4.662,4.662,0,0,0-.111,5.79A3.958,3.958,0,0,0,85.427,70.8a5.579,5.579,0,0,0,2.232-.4l-.308-1.792a4.4,4.4,0,0,1-1.7.308" transform="translate(43.92 33.797)" fill="#fff"/>
        <path id="Path_78553" data-name="Path 78553" d="M89.955,62.633a10.18,10.18,0,0,0-1.458.122,7.04,7.04,0,0,0-1.1.252l.28,1.764a6.055,6.055,0,0,1,2.035-.308q1.5,0,1.5,1.252v.2a4.981,4.981,0,0,0-1.289-.14,4.19,4.19,0,0,0-2.251.542,2.079,2.079,0,0,0-1,1.9,2.23,2.23,0,0,0,.905,1.989,4.2,4.2,0,0,0,2.41.57,14.23,14.23,0,0,0,3.316-.391V65.808a3.324,3.324,0,0,0-.7-2.325,3.5,3.5,0,0,0-2.651-.85m1.261,6.388a7.4,7.4,0,0,1-1.084.057q-1.289,0-1.289-.916a.763.763,0,0,1,.448-.719,2.307,2.307,0,0,1,1.047-.177,3.636,3.636,0,0,1,.878.083Z" transform="translate(46.771 33.797)" fill="#fff"/>
        <path id="Path_78554" data-name="Path 78554" d="M94.466,68.854V60.225L92.2,60.59v8.722a2.763,2.763,0,0,0,.616,2.008,3.7,3.7,0,0,0,2.568.767l.319-1.858a1.406,1.406,0,0,1-1.018-.411,1.59,1.59,0,0,1-.216-.962" transform="translate(49.75 32.497)" fill="#fff"/>
        <path id="Path_78555" data-name="Path 78555" d="M105.8,69.722a6.423,6.423,0,0,1-1.718.216,2.839,2.839,0,0,1-2.41-1.028,3.989,3.989,0,0,1-.71-2.53,3.682,3.682,0,0,1,.925-2.691,2.791,2.791,0,0,1,2.063-.784,5.56,5.56,0,0,1,2.7.645l.71-1.98a4.636,4.636,0,0,0-1.112-.5,7.606,7.606,0,0,0-2.26-.336,5.436,5.436,0,0,0-3.978,1.484,5.659,5.659,0,0,0-1.6,4.212,5.839,5.839,0,0,0,1.4,4.2,5.3,5.3,0,0,0,4.054,1.486,7.06,7.06,0,0,0,3.65-.822l-.682-1.971a7.328,7.328,0,0,1-1.036.4" transform="translate(53.105 32.769)" fill="#fff"/>
        <path id="Path_78556" data-name="Path 78556" d="M109.258,62.628a3.476,3.476,0,0,0-2.559,1.036,4.2,4.2,0,0,0-1.158,3.11,3.956,3.956,0,0,0,1,2.867,4.074,4.074,0,0,0,3.1,1.167,8.367,8.367,0,0,0,1.606-.168,5.246,5.246,0,0,0,1.13-.317l-.3-1.794a4.853,4.853,0,0,1-.953.28,6.02,6.02,0,0,1-1.195.112,2.509,2.509,0,0,1-1.493-.4,1.42,1.42,0,0,1-.636-1.073h4.987a7.123,7.123,0,0,0,.046-.831,4.236,4.236,0,0,0-.971-2.979,3.371,3.371,0,0,0-2.605-1.008M107.8,65.934a2.054,2.054,0,0,1,.42-1.027,1.323,1.323,0,0,1,1.073-.457,1.286,1.286,0,0,1,1.065.466,1.8,1.8,0,0,1,.354,1.018Z" transform="translate(56.95 33.794)" fill="#fff"/>
        <path id="Path_78557" data-name="Path 78557" d="M114.9,62.634a11.788,11.788,0,0,0-3.409.467v7.715h2.269V64.651a5.9,5.9,0,0,1,1-.083,1.2,1.2,0,0,1,1.082.457,2.978,2.978,0,0,1,.291,1.55v4.24h2.259V66.3a4.112,4.112,0,0,0-.728-2.644,3.357,3.357,0,0,0-2.764-1.027" transform="translate(60.162 33.797)" fill="#fff"/>
        <path id="Path_78558" data-name="Path 78558" d="M120.69,69.723a1.116,1.116,0,0,1-1-.43,1.964,1.964,0,0,1-.253-1.121v-2.8h2.7V63.513h-2.7V61.16l-2.251.363V68.21a3.844,3.844,0,0,0,.654,2.466,2.986,2.986,0,0,0,2.483.951,5.374,5.374,0,0,0,2.129-.411l-.317-1.746a4.3,4.3,0,0,1-1.447.253" transform="translate(63.235 33.002)" fill="#fff"/>
        <path id="Path_78559" data-name="Path 78559" d="M125.539,62.628a3.476,3.476,0,0,0-2.559,1.036,4.2,4.2,0,0,0-1.158,3.11,3.956,3.956,0,0,0,1,2.867,4.072,4.072,0,0,0,3.1,1.167,8.367,8.367,0,0,0,1.606-.168,5.246,5.246,0,0,0,1.13-.317l-.3-1.794a4.853,4.853,0,0,1-.953.28,6.02,6.02,0,0,1-1.195.112,2.509,2.509,0,0,1-1.493-.4,1.42,1.42,0,0,1-.636-1.073h4.987a7.12,7.12,0,0,0,.046-.831,4.236,4.236,0,0,0-.971-2.979,3.371,3.371,0,0,0-2.605-1.008m-1.456,3.306a2.054,2.054,0,0,1,.42-1.027,1.323,1.323,0,0,1,1.073-.457,1.286,1.286,0,0,1,1.065.466A1.8,1.8,0,0,1,127,65.934Z" transform="translate(65.736 33.794)" fill="#fff"/>
        <path id="Path_78560" data-name="Path 78560" d="M131.031,62.688a9.456,9.456,0,0,0-3.259.588v7.509h2.251V64.723a4.207,4.207,0,0,1,.951-.122,6.637,6.637,0,0,1,1.578.243l.374-1.858a4.464,4.464,0,0,0-.942-.214,7.244,7.244,0,0,0-.953-.085" transform="translate(68.946 33.826)" fill="#fff"/>
      </g>
    </g>
    <g id="Group_40656" data-name="Group 40656">
      <g id="Group_40655" data-name="Group 40655" clip-path="url(#clip-path-3)">
        <rect id="Rectangle_22562" data-name="Rectangle 22562" width="59.746" height="59.718" transform="translate(0 0)" fill="#fff"/>
      </g>
    </g>
    <g id="Group_40664" data-name="Group 40664" transform="translate(0 0)">
      <g id="Group_40663" data-name="Group 40663" clip-path="url(#clip-path)">
        <g id="Group_40659" data-name="Group 40659" transform="translate(0 0)" opacity="0.25" style="mix-blend-mode: lighten;isolation: isolate">
          <g id="Group_40658" data-name="Group 40658">
            <g id="Group_40657" data-name="Group 40657" clip-path="url(#clip-path-5)">
              <path id="Path_78562" data-name="Path 78562" d="M59.746,17.913a17.193,17.193,0,0,1-2.7,9.416c-4.406-1.155-8.706-2.44-12.956-3.883.026,0,.052-.026.079-.026a6.2,6.2,0,0,0,1.889-1.284,5.558,5.558,0,0,0,1.258-1.889,5.787,5.787,0,0,0,.473-2.334,5.7,5.7,0,0,0-.473-2.334,5.558,5.558,0,0,0-1.258-1.889,6.2,6.2,0,0,0-1.889-1.284,5.913,5.913,0,0,0-2.36-.473H17.678A176.385,176.385,0,0,1,0,1.076V0H41.806a17.485,17.485,0,0,1,7,1.39A17.688,17.688,0,0,1,54.5,5.219a18.011,18.011,0,0,1,3.855,5.718,17.816,17.816,0,0,1,1.39,6.976" fill="#fff"/>
            </g>
          </g>
        </g>
        <path id="Path_78563" data-name="Path 78563" d="M46.86,20.461v.052a3.038,3.038,0,0,1-1.022,2.229,3.1,3.1,0,0,1-2.072.813,3.037,3.037,0,0,1-2.833-1.915,2.96,2.96,0,0,1-.236-1.179,3.349,3.349,0,0,1,.209-1.155,3.094,3.094,0,0,1,5.954,1.155" transform="translate(21.96 9.385)" fill="#fff"/>
        <g id="Group_40662" data-name="Group 40662" transform="translate(62.867 26.778)" opacity="0.25" style="mix-blend-mode: lighten;isolation: isolate">
          <g id="Group_40661" data-name="Group 40661">
            <g id="Group_40660" data-name="Group 40660" clip-path="url(#clip-path-6)">
              <path id="Path_78564" data-name="Path 78564" d="M46.787,20.461v.052c-1.994-.34-3.986-.761-5.954-1.207a3.094,3.094,0,0,1,5.954,1.155" transform="translate(-40.833 -17.393)" fill="#fff"/>
            </g>
          </g>
        </g>
      </g>
    </g>
    <g id="Group_40666" data-name="Group 40666" transform="translate(71.706)">
      <g id="Group_40665" data-name="Group 40665" clip-path="url(#clip-path-7)">
        <rect id="Rectangle_22566" data-name="Rectangle 22566" width="59.744" height="59.718" transform="translate(0 0)" fill="#fff"/>
      </g>
    </g>
    <g id="Group_40674" data-name="Group 40674" transform="translate(0 0)">
      <g id="Group_40673" data-name="Group 40673" clip-path="url(#clip-path)">
        <g id="Group_40669" data-name="Group 40669" transform="translate(71.705 0)" opacity="0.25" style="mix-blend-mode: lighten;isolation: isolate">
          <g id="Group_40668" data-name="Group 40668">
            <g id="Group_40667" data-name="Group 40667" clip-path="url(#clip-path-9)">
              <path id="Path_78566" data-name="Path 78566" d="M106.32,17.913V30.424c-3.934.682-7.921,1.232-11.933,1.626V17.913a5.7,5.7,0,0,0-.473-2.334,6.026,6.026,0,0,0-3.2-3.173,5.663,5.663,0,0,0-2.308-.473,5.913,5.913,0,0,0-2.36.473,6.2,6.2,0,0,0-1.889,1.284A5.558,5.558,0,0,0,82.9,15.579a5.7,5.7,0,0,0-.473,2.334V32.837c-1.994.079-3.986.1-5.98.1s-3.986-.026-5.98-.1V17.913a6.178,6.178,0,0,0-.445-2.334,5.626,5.626,0,0,0-1.286-1.889,6.2,6.2,0,0,0-1.889-1.284,5.787,5.787,0,0,0-2.334-.473,5.7,5.7,0,0,0-2.334.473,5.862,5.862,0,0,0-3.173,3.173,5.686,5.686,0,0,0-.446,2.334V32.05c-4.038-.394-8.052-.944-11.986-1.626V17.913A18.076,18.076,0,0,1,51.819,5.219,17.522,17.522,0,0,1,57.538,1.39a18.071,18.071,0,0,1,13.376-.209,16.991,16.991,0,0,1,5.56,3.435,16.772,16.772,0,0,1,5.509-3.435,18.135,18.135,0,0,1,13.4.209,17.688,17.688,0,0,1,5.692,3.829,18.012,18.012,0,0,1,3.855,5.718,17.816,17.816,0,0,1,1.39,6.976" transform="translate(-46.574 0)" fill="#fff"/>
            </g>
          </g>
        </g>
        <path id="Path_78567" data-name="Path 78567" d="M93.4,20.461a2.906,2.906,0,0,1-.209,1.153,3.093,3.093,0,0,1-5.954-1.075v-.079a3.094,3.094,0,0,1,5.954-1.155,3.349,3.349,0,0,1,.209,1.155" transform="translate(47.074 9.385)" fill="#fff"/>
        <g id="Group_40672" data-name="Group 40672" transform="translate(134.31 26.778)" opacity="0.25" style="mix-blend-mode: lighten;isolation: isolate">
          <g id="Group_40671" data-name="Group 40671">
            <g id="Group_40670" data-name="Group 40670" clip-path="url(#clip-path-10)">
              <path id="Path_78568" data-name="Path 78568" d="M93.191,19.307c-1.969.473-3.961.865-5.955,1.233v-.079a3.094,3.094,0,0,1,5.955-1.155" transform="translate(-87.237 -17.393)" fill="#fff"/>
            </g>
          </g>
        </g>
      </g>
    </g>
    <g id="Group_40676" data-name="Group 40676" transform="translate(143.359)">
      <g id="Group_40675" data-name="Group 40675" clip-path="url(#clip-path-11)">
        <rect id="Rectangle_22570" data-name="Rectangle 22570" width="59.744" height="59.718" transform="translate(0 0)" fill="#fff"/>
      </g>
    </g>
    <g id="Group_40681" data-name="Group 40681" transform="translate(0 0)">
      <g id="Group_40680" data-name="Group 40680" clip-path="url(#clip-path)">
        <g id="Group_40679" data-name="Group 40679" transform="translate(143.358 0)" opacity="0.25" style="mix-blend-mode: lighten;isolation: isolate">
          <g id="Group_40678" data-name="Group 40678">
            <g id="Group_40677" data-name="Group 40677" clip-path="url(#clip-path-13)">
              <path id="Path_78570" data-name="Path 78570" d="M152.859,0V1.1a176.791,176.791,0,0,1-17.624,10.833H111.052a5.7,5.7,0,0,0-2.334.473,5.862,5.862,0,0,0-3.173,3.173,5.7,5.7,0,0,0-.473,2.334v6.74c-3.934,1.259-7.92,2.386-11.96,3.33V17.913A18.076,18.076,0,0,1,98.358,5.219a17.522,17.522,0,0,1,5.718-3.829A17.36,17.36,0,0,1,111.052,0Z" transform="translate(-93.114 0)" fill="#fff"/>
            </g>
          </g>
        </g>
      </g>
    </g>
  </g>
</svg>
