<svg xmlns="http://www.w3.org/2000/svg" xmlns:xlink="http://www.w3.org/1999/xlink" width="120.62" height="114.642" viewBox="0 0 120.62 114.642">
  <defs>
    <filter id="ashkan-forouzani-l-NIPb-9Njg-unsplash" x="0" y="0" width="120.62" height="114.642" filterUnits="userSpaceOnUse">
      <feOffset dy="3" input="SourceAlpha"/>
      <feGaussianBlur stdDeviation="3" result="blur"/>
      <feFlood flood-color="#f0f4fc"/>
      <feComposite operator="in" in2="blur"/>
      <feComposite in="SourceGraphic"/>
    </filter>
  </defs>
  <g id="Group_40373" data-name="Group 40373" transform="translate(9 6)">
    <g id="Group_111" data-name="Group 111" transform="translate(0 0)">
      <g transform="matrix(1, 0, 0, 1, -9, -6)" filter="url(#ashkan-forouzani-l-NIPb-9Njg-unsplash)">
        <g id="ashkan-forouzani-l-NIPb-9Njg-unsplash-2" data-name="ashkan-forouzani-l-NIPb-9Njg-unsplash" transform="translate(9 6)" fill="#90d0d1" stroke="#23a2a4" stroke-width="2">
          <rect width="102.62" height="96.642" rx="12" stroke="none"/>
          <rect x="1" y="1" width="100.62" height="94.642" rx="11" fill="none"/>
        </g>
      </g>
    </g>
    <g id="Alarm" transform="translate(17.056 16.514)">
      <path id="Path_78229" data-name="Path 78229" d="M60.274,44.7H55.381V30.02a22.02,22.02,0,0,0-44.041,0V44.7H6.447A2.447,2.447,0,0,0,4,47.147v9.787a2.447,2.447,0,0,0,2.447,2.447H60.274a2.447,2.447,0,0,0,2.447-2.447V47.147A2.447,2.447,0,0,0,60.274,44.7ZM16.234,30.02a17.127,17.127,0,0,1,34.254,0V44.7H16.234ZM57.828,54.488H8.893V49.594H57.828Z" transform="translate(0.893 4.234)" fill="#fff"/>
      <path id="Path_78231" data-name="Path 78231" d="M17.447,12.787a2.447,2.447,0,0,0,2.447-2.447V5.447a2.447,2.447,0,1,0-4.893,0V10.34A2.447,2.447,0,0,0,17.447,12.787Z" transform="translate(16.807 -3)" fill="#fff"/>
      <path id="Path_78232" data-name="Path 78232" d="M9.984,14.444a2.447,2.447,0,1,0,3.46-3.46l-3.46-3.46a2.447,2.447,0,1,0-3.46,3.46Z" transform="translate(3.508 2.509)" fill="#fff"/>
      <path id="Path_78233" data-name="Path 78233" d="M11.787,18.447A2.447,2.447,0,0,0,9.34,16H4.447a2.447,2.447,0,1,0,0,4.893H9.34A2.447,2.447,0,0,0,11.787,18.447Z" transform="translate(-2 15.807)" fill="#fff"/>
      <path id="Path_78234" data-name="Path 78234" d="M26.955,14.444l3.46-3.46a2.447,2.447,0,1,0-3.46-3.46l-3.46,3.46a2.447,2.447,0,1,0,3.46,3.46Z" transform="translate(28.06 2.508)" fill="#fff"/>
      <path id="Path_78235" data-name="Path 78235" d="M33.34,16H28.447a2.447,2.447,0,1,0,0,4.893H33.34a2.447,2.447,0,1,0,0-4.893Z" transform="translate(32.721 15.807)" fill="#fff"/>
    </g>
  </g>
</svg>
