<svg xmlns="http://www.w3.org/2000/svg" width="31.989" height="39.409" viewBox="0 0 31.989 39.409">
  <g id="Group_41565" data-name="Group 41565" transform="translate(-1300.971 -800.156)">
    <circle id="Ellipse_438" data-name="Ellipse 438" cx="10.5" cy="10.5" r="10.5" transform="translate(1306 805)" fill="#fff"/>
    <path id="Path_78814" data-name="Path 78814" d="M79.035,0H49.355A1.155,1.155,0,0,0,48.2,1.155v37.1a1.155,1.155,0,0,0,1.671,1.033l14.324-7.162,14.324,7.162a1.155,1.155,0,0,0,1.671-1.033V1.155A1.155,1.155,0,0,0,79.035,0ZM72.421,14.793l-3.275,3.193.762,4.445a1.156,1.156,0,0,1-1.123,1.413h0a1.153,1.153,0,0,1-.537-.133l-4.049-2.128L60.146,23.71a1.155,1.155,0,0,1-1.675-1.217l.773-4.508-3.276-3.193a1.155,1.155,0,0,1,.64-1.969l4.527-.658,2.024-4.1a1.155,1.155,0,0,1,2.071,0l2.024,4.1,4.526.658a1.155,1.155,0,0,1,.64,1.969Z" transform="translate(1252.771 800.156)" fill="#23a2a4"/>
  </g>
</svg>
