<svg id="Get_it_on_Google_play" xmlns="http://www.w3.org/2000/svg" width="211.39" height="77.021" viewBox="0 0 211.39 77.021">
  <path id="path14" d="M203.561,77.021H7.829C3.525,77.021,0,72.687,0,67.395V9.628C0,4.336,3.525,0,7.829,0H203.561c4.3,0,7.829,4.336,7.829,9.628V67.395C211.392,72.687,207.867,77.021,203.561,77.021Z" transform="translate(0 0)" fill="#23a2a4"/>
  <g id="Group_10754" data-name="Group 10754" transform="translate(24.677 18.597)">
    <g id="Group_668" data-name="Group 668" transform="translate(0 0)">
      <g id="_Group_2" data-name=" Group 2">
        <g id="_Group_3" data-name=" Group 3">
          <path id="_Path_" data-name=" Path " d="M33.956,24.23a8.02,8.02,0,0,1,3.819-6.73A8.209,8.209,0,0,0,31.306,14c-2.721-.285-5.36,1.629-6.748,1.629-1.413,0-3.548-1.6-5.848-1.553a8.615,8.615,0,0,0-7.25,4.42c-3.135,5.428-.8,13.4,2.206,17.792,1.5,2.148,3.258,4.547,5.556,4.462,2.248-.094,3.088-1.434,5.8-1.434,2.689,0,3.477,1.434,5.82,1.379,2.413-.039,3.932-2.157,5.383-4.326a17.763,17.763,0,0,0,2.46-5.012A7.751,7.751,0,0,1,33.956,24.23Z" transform="translate(-9.972 -5.459)" fill="#fff"/>
          <path id="_Path_2" data-name=" Path 2" d="M24.053,14.378A7.9,7.9,0,0,0,25.86,8.72a8.036,8.036,0,0,0-5.2,2.691,7.52,7.52,0,0,0-1.854,5.448A6.643,6.643,0,0,0,24.053,14.378Z" transform="translate(-4.497 -8.72)" fill="#fff"/>
        </g>
      </g>
      <g id="Group_665" data-name="Group 665" transform="translate(44.596 16.05)">
        <path id="Path_6887" data-name="Path 6887" d="M46.615,32.1H39.29L37.53,37.3h-3.1l6.94-19.219h3.224L51.529,37.3H48.373Zm-6.567-2.4h5.807l-2.863-8.43h-.079Z" transform="translate(-34.427 -17.758)" fill="#fff"/>
        <path id="Path_6888" data-name="Path 6888" d="M59.831,28.5c0,4.354-2.331,7.152-5.849,7.152A4.751,4.751,0,0,1,49.575,33.2h-.067v6.94H46.631V21.494h2.784v2.331h.053a4.971,4.971,0,0,1,4.462-2.476C57.486,21.349,59.831,24.16,59.831,28.5Zm-2.956,0c0-2.837-1.467-4.7-3.7-4.7-2.2,0-3.676,1.9-3.676,4.7,0,2.823,1.478,4.714,3.676,4.714C55.408,33.217,56.875,31.364,56.875,28.5Z" transform="translate(-27.743 -15.968)" fill="#fff"/>
        <path id="Path_6889" data-name="Path 6889" d="M69.8,28.5c0,4.354-2.331,7.152-5.849,7.152A4.751,4.751,0,0,1,59.54,33.2h-.067v6.94H56.6V21.494H59.38v2.331h.053a4.971,4.971,0,0,1,4.462-2.476C67.451,21.349,69.8,24.16,69.8,28.5Zm-2.958,0c0-2.837-1.466-4.7-3.7-4.7-2.2,0-3.676,1.9-3.676,4.7,0,2.823,1.478,4.714,3.676,4.714,2.236,0,3.7-1.853,3.7-4.714Z" transform="translate(-22.286 -15.968)" fill="#fff"/>
        <path id="Path_6890" data-name="Path 6890" d="M72.752,32.056c.214,1.907,2.065,3.157,4.6,3.157,2.425,0,4.169-1.251,4.169-2.97,0-1.492-1.052-2.385-3.543-3l-2.492-.6c-3.529-.853-5.168-2.5-5.168-5.182,0-3.315,2.889-5.593,6.994-5.593,4.061,0,6.845,2.278,6.938,5.593h-2.9c-.173-1.918-1.758-3.075-4.077-3.075s-3.9,1.172-3.9,2.876c0,1.359,1.012,2.159,3.49,2.77l2.117.52c3.943.933,5.581,2.517,5.581,5.329,0,3.6-2.863,5.847-7.418,5.847-4.262,0-7.141-2.2-7.327-5.675Z" transform="translate(-15.05 -17.871)" fill="#fff"/>
        <path id="Path_6891" data-name="Path 6891" d="M85.089,19.3v3.315h2.665v2.278H85.089v7.724c0,1.2.534,1.76,1.706,1.76a9.215,9.215,0,0,0,.946-.067v2.264a8.008,8.008,0,0,1-1.6.133c-2.837,0-3.943-1.066-3.943-3.784V24.893H80.163V22.615H82.2V19.3Z" transform="translate(-9.379 -17.088)" fill="#fff"/>
        <path id="Path_6892" data-name="Path 6892" d="M86.065,28.511c0-4.409,2.6-7.18,6.646-7.18s6.647,2.77,6.647,7.18-2.571,7.178-6.647,7.178S86.065,32.931,86.065,28.511Zm10.362,0c0-3.024-1.385-4.81-3.716-4.81S89,25.5,89,28.511c0,3.037,1.384,4.807,3.714,4.807s3.716-1.771,3.716-4.807Z" transform="translate(-6.146 -15.976)" fill="#fff"/>
        <path id="Path_6893" data-name="Path 6893" d="M96.186,21.494H98.93v2.385H99a3.34,3.34,0,0,1,3.369-2.53,4.4,4.4,0,0,1,.986.107v2.69a4.053,4.053,0,0,0-1.292-.173,2.9,2.9,0,0,0-3.013,2.778,3.068,3.068,0,0,0,.015.446v8.311H96.186Z" transform="translate(-0.604 -15.968)" fill="#fff"/>
        <path id="Path_6894" data-name="Path 6894" d="M113.857,31.4c-.387,2.543-2.863,4.289-6.033,4.289-4.077,0-6.607-2.73-6.607-7.112s2.544-7.246,6.486-7.246c3.877,0,6.314,2.664,6.314,6.912v.986h-9.9V29.4a3.65,3.65,0,0,0,3.314,3.957,3.747,3.747,0,0,0,.457.011,3.169,3.169,0,0,0,3.236-1.97Zm-9.722-4.182h7a3.369,3.369,0,0,0-3.176-3.552q-.13-.007-.26,0a3.547,3.547,0,0,0-3.569,3.526Z" transform="translate(2.152 -15.976)" fill="#fff"/>
      </g>
      <g id="_Group_4" data-name=" Group 4" transform="translate(44.79 1.073)">
        <g id="Group_667" data-name="Group 667">
          <path id="Path_6895" data-name="Path 6895" d="M39.006,8.735a4.086,4.086,0,0,1,4.368,3.783,4.129,4.129,0,0,1-.022.806c0,2.95-1.594,4.646-4.346,4.646H35.671V8.735Zm-1.9,7.929h1.741a2.9,2.9,0,0,0,3.071-2.725,2.848,2.848,0,0,0-.026-.6,2.913,2.913,0,0,0-3.044-3.3H37.106Z" transform="translate(-35.671 -8.28)" fill="#fff"/>
          <path id="Path_6896" data-name="Path 6896" d="M41.687,13.723a3.3,3.3,0,1,1,6.573,0,3.3,3.3,0,1,1-6.573.641A3.167,3.167,0,0,1,41.687,13.723Zm5.158,0c0-1.511-.679-2.394-1.87-2.394s-1.868.884-1.868,2.394.672,2.4,1.868,2.4,1.87-.884,1.87-2.4Z" transform="translate(-32.385 -7.522)" fill="#fff"/>
          <path id="Path_6897" data-name="Path 6897" d="M54.314,17.164H52.887l-1.439-5.134h-.11L49.9,17.164H48.491l-1.922-6.969h1.4l1.247,5.318h.1l1.433-5.318h1.319L53.5,15.513h.108l1.243-5.318h1.376Z" transform="translate(-29.703 -7.474)" fill="#fff"/>
          <path id="Path_6898" data-name="Path 6898" d="M53.854,10.245h1.323v1.107h.1a2.085,2.085,0,0,1,2.08-1.241,2.265,2.265,0,0,1,2.43,2.091,2.176,2.176,0,0,1-.017.5v4.512H58.4V13.048c0-1.121-.486-1.678-1.5-1.678a1.605,1.605,0,0,0-1.664,1.766v4.078H53.854Z" transform="translate(-25.713 -7.524)" fill="#fff"/>
          <path id="Path_6899" data-name="Path 6899" d="M59.094,8.437h1.374v9.69H59.094Z" transform="translate(-22.843 -8.437)" fill="#fff"/>
          <path id="Path_6900" data-name="Path 6900" d="M61.224,13.723a3.3,3.3,0,1,1,6.573,0,3.3,3.3,0,1,1-6.573.639A3.151,3.151,0,0,1,61.224,13.723Zm5.158,0c0-1.511-.679-2.394-1.87-2.394s-1.868.884-1.868,2.394.672,2.4,1.868,2.4S66.382,15.24,66.382,13.723Z" transform="translate(-21.685 -7.522)" fill="#fff"/>
          <path id="Path_6901" data-name="Path 6901" d="M66.4,15.24c0-1.254.933-1.978,2.592-2.08l1.887-.108v-.6c0-.735-.486-1.151-1.425-1.151-.769,0-1.3.282-1.453.774H66.67c.141-1.2,1.266-1.964,2.848-1.964,1.746,0,2.732.87,2.732,2.342v4.762H70.926v-.98h-.11a2.344,2.344,0,0,1-2.092,1.094,2.106,2.106,0,0,1-2.312-1.876C66.406,15.381,66.4,15.311,66.4,15.24Zm4.479-.594v-.583l-1.7.108c-.96.065-1.4.392-1.4,1.006s.545.992,1.292.992a1.642,1.642,0,0,0,1.8-1.469Z" transform="translate(-18.841 -7.522)" fill="#fff"/>
          <path id="Path_6902" data-name="Path 6902" d="M71.348,14.639c0-2.2,1.133-3.6,2.893-3.6a2.3,2.3,0,0,1,2.137,1.223h.1V8.437h1.374v9.69H76.539v-1.1h-.11a2.417,2.417,0,0,1-2.188,1.216C72.468,18.242,71.348,16.847,71.348,14.639Zm1.421,0c0,1.478.7,2.368,1.862,2.368s1.876-.9,1.876-2.362-.724-2.368-1.876-2.368-1.862.9-1.862,2.362Z" transform="translate(-16.132 -8.437)" fill="#fff"/>
          <path id="Path_6903" data-name="Path 6903" d="M79.235,13.723a3.3,3.3,0,1,1,6.573,0,3.3,3.3,0,1,1-6.573.641A3.41,3.41,0,0,1,79.235,13.723Zm5.158,0c0-1.511-.678-2.394-1.87-2.394s-1.868.884-1.868,2.394.673,2.4,1.868,2.4S84.394,15.24,84.394,13.723Z" transform="translate(-11.82 -7.522)" fill="#fff"/>
          <path id="Path_6904" data-name="Path 6904" d="M84.669,10.245h1.325v1.107h.1a2.085,2.085,0,0,1,2.08-1.241A2.271,2.271,0,0,1,90.589,12.7v4.512H89.213V13.048c0-1.121-.486-1.678-1.5-1.678a1.6,1.6,0,0,0-1.671,1.523,1.812,1.812,0,0,0,.008.243v4.078H84.669Z" transform="translate(-8.836 -7.524)" fill="#fff"/>
          <path id="Path_6905" data-name="Path 6905" d="M94.393,9.074V10.84H95.9V12h-1.51v3.583c0,.731.3,1.051.986,1.051A4.972,4.972,0,0,0,95.9,16.6v1.145a4.512,4.512,0,0,1-.749.071c-1.529,0-2.137-.539-2.137-1.882V12H91.911V10.84h1.107V9.074Z" transform="translate(-4.87 -8.088)" fill="#fff"/>
          <path id="Path_6906" data-name="Path 6906" d="M95.705,8.437h1.362v3.84h.11A2.145,2.145,0,0,1,99.3,11.029a2.3,2.3,0,0,1,2.417,2.167,2.373,2.373,0,0,1-.017.432v4.5h-1.377v-4.16c0-1.113-.518-1.678-1.49-1.678a1.628,1.628,0,0,0-1.755,1.49,1.656,1.656,0,0,0,0,.277v4.07H95.705Z" transform="translate(-2.792 -8.437)" fill="#fff"/>
          <path id="Path_6907" data-name="Path 6907" d="M106.979,15.33a2.83,2.83,0,0,1-3.02,2.017,3.166,3.166,0,0,1-3.247-3.081,3.214,3.214,0,0,1,.028-.517,3.216,3.216,0,0,1,2.759-3.612,3.172,3.172,0,0,1,.453-.028c1.939,0,3.109,1.325,3.109,3.513v.48h-4.922v.077a1.842,1.842,0,0,0,1.681,1.99c.059,0,.118.006.175.006a1.674,1.674,0,0,0,1.659-.845Zm-4.838-2.246h3.521a1.682,1.682,0,0,0-1.554-1.8,1.424,1.424,0,0,0-.162,0,1.782,1.782,0,0,0-1.8,1.76v.046Z" transform="translate(-0.051 -7.522)" fill="#fff"/>
        </g>
      </g>
    </g>
  </g>
</svg>
