<svg id="svgexport-7_7_" data-name="svgexport-7 (7)" xmlns="http://www.w3.org/2000/svg" width="66.693" height="66.693" viewBox="0 0 66.693 66.693">
  <g id="Group_41399" data-name="Group 41399">
    <path id="Path_78676" data-name="Path 78676" d="M33.347,0A33.347,33.347,0,1,0,66.693,33.347,33.348,33.348,0,0,0,33.347,0Zm0,60.441A27.094,27.094,0,1,1,60.441,33.347,27.093,27.093,0,0,1,33.347,60.441Zm0-45.816c-2.388,0-4.2,1.246-4.2,3.26V36.35c0,2.015,1.807,3.258,4.2,3.258,2.33,0,4.2-1.294,4.2-3.258V17.884C37.544,15.919,35.679,14.625,33.349,14.625Zm0,29.143a4.162,4.162,0,1,0,4.16,4.164A4.168,4.168,0,0,0,33.349,43.767Z" fill="#fff"/>
  </g>
</svg>
