<svg id="svgexport-9_3_" data-name="svgexport-9 (3)" xmlns="http://www.w3.org/2000/svg" width="27.624" height="34.867" viewBox="0 0 27.624 34.867">
  <g id="surface1" transform="translate(0)">
    <path id="Path_78165" data-name="Path 78165" d="M9.335.269A.843.843,0,0,1,9.941,0h13.6a4.6,4.6,0,0,1,4.582,4.573V30.294a4.6,4.6,0,0,1-4.582,4.573H5.082A4.6,4.6,0,0,1,.5,30.294V9.871a.906.906,0,0,1,.244-.589Zm-.244,2.7L3.338,9.012H7.078a2.006,2.006,0,0,0,2.013-2ZM5.082,33.183H23.543a2.917,2.917,0,0,0,2.9-2.889V4.573a2.917,2.917,0,0,0-2.9-2.889H10.775V7.007a3.684,3.684,0,0,1-3.7,3.689H2.184v19.6A2.912,2.912,0,0,0,5.082,33.183Zm0,0" transform="translate(-0.5 0)" fill="#393e46"/>
    <path id="Path_78166" data-name="Path 78166" d="M90.023,401.934h13.863a.842.842,0,1,1,0,1.684H90.014a.842.842,0,1,1,.009-1.684Zm0,0" transform="translate(-83.142 -374.562)" fill="#393e46"/>
    <path id="Path_78167" data-name="Path 78167" d="M125.019,183.048a.836.836,0,0,1-1.23,0l-4.935-5.3a.84.84,0,1,1,1.229-1.145l3.478,3.731v-9.2a.842.842,0,0,1,1.684,0v9.2l3.47-3.731a.84.84,0,0,1,1.23,1.145Zm0,0" transform="translate(-110.592 -158.7)" fill="#393e46"/>
  </g>
</svg>
