<svg xmlns="http://www.w3.org/2000/svg" xmlns:xlink="http://www.w3.org/1999/xlink" width="120.62" height="114.642" viewBox="0 0 120.62 114.642">
  <defs>
    <filter id="ashkan-forouzani-l-NIPb-9Njg-unsplash" x="0" y="0" width="120.62" height="114.642" filterUnits="userSpaceOnUse">
      <feOffset dy="3" input="SourceAlpha"/>
      <feGaussianBlur stdDeviation="3" result="blur"/>
      <feFlood flood-color="#f0f4fc"/>
      <feComposite operator="in" in2="blur"/>
      <feComposite in="SourceGraphic"/>
    </filter>
  </defs>
  <g id="Group_40375" data-name="Group 40375" transform="translate(9 6)">
    <g id="Group_111" data-name="Group 111" transform="translate(0)">
      <g transform="matrix(1, 0, 0, 1, -9, -6)" filter="url(#ashkan-forouzani-l-NIPb-9Njg-unsplash)">
        <g id="ashkan-forouzani-l-NIPb-9Njg-unsplash-2" data-name="ashkan-forouzani-l-NIPb-9Njg-unsplash" transform="translate(9 6)" fill="#90d0d1" stroke="#23a2a4" stroke-width="2">
          <rect width="102.62" height="96.642" rx="12" stroke="none"/>
          <rect x="1" y="1" width="100.62" height="94.642" rx="11" fill="none"/>
        </g>
      </g>
    </g>
    <g id="Give_eye" data-name="Give eye" transform="translate(19.209 22.018)">
      <path id="Path_78356" data-name="Path 78356" d="M62.3,14.835a6.921,6.921,0,0,0-7.329.759L44.416,23.806a6.873,6.873,0,0,0-5.73-3.084H15.757a2.291,2.291,0,0,0-1.621.672L2.672,32.858A2.293,2.293,0,1,0,5.914,36.1L16.707,25.308h21.98a2.293,2.293,0,0,1,0,4.586H29.515a2.293,2.293,0,0,0,0,4.586h9.172a6.879,6.879,0,0,0,6.756-5.662l12.349-9.6a2.37,2.37,0,0,1,3.131,3.547L44.616,39.065H20.343a2.291,2.291,0,0,0-1.621.672l-4.586,4.586a2.293,2.293,0,1,0,3.242,3.242l3.914-3.914H45.565a2.291,2.291,0,0,0,1.621-.672L64.164,26A6.956,6.956,0,0,0,62.3,14.835Z" transform="translate(-2 11.379)" fill="#fff"/>
      <path id="Path_78357" data-name="Path 78357" d="M19.879,6a6.879,6.879,0,1,0,6.879,6.879A6.879,6.879,0,0,0,19.879,6Zm0,9.172a2.293,2.293,0,1,1,2.293-2.293,2.293,2.293,0,0,1-2.293,2.293Z" transform="translate(12.222 0.879)" fill="#fff"/>
      <path id="Path_78358" data-name="Path 78358" d="M30.222,30.515c11.767,0,19.046-6.168,24.615-12.2a2.293,2.293,0,0,0,0-3.11C49.266,9.168,41.985,3,30.222,3S11.176,9.168,5.607,15.2a2.293,2.293,0,0,0,0,3.11C11.178,24.347,18.459,30.515,30.222,30.515ZM21.05,16.757a9.172,9.172,0,1,1,9.172,9.172A9.172,9.172,0,0,1,21.05,16.757Zm21.591,5.879a13.585,13.585,0,0,0,0-11.757,36.374,36.374,0,0,1,7.339,5.878,36.336,36.336,0,0,1-7.339,5.879ZM17.8,10.878a13.585,13.585,0,0,0,0,11.757,36.374,36.374,0,0,1-7.339-5.878A36.336,36.336,0,0,1,17.8,10.878Z" transform="translate(1.879 -3)" fill="#fff"/>
    </g>
  </g>
</svg>
