<svg id="Group_40687" data-name="Group 40687" xmlns="http://www.w3.org/2000/svg" xmlns:xlink="http://www.w3.org/1999/xlink" width="219.324" height="207.609" viewBox="0 0 219.324 207.609">
  <defs>
    <clipPath id="clip-path">
      <rect id="Rectangle_22488" data-name="Rectangle 22488" width="219.324" height="207.609" fill="#fff"/>
    </clipPath>
    <clipPath id="clip-path-2">
      <path id="Path_78187" data-name="Path 78187" d="M351.769,328.513c-9.266-.161-18.751-4.207-24-11.846-12.913-18.794-1.717-47.56,7.036-65.659,1.219-2.52,2.489-5.045,3.758-7.549a67.925,67.925,0,0,0,7.886,6.056A85.248,85.248,0,0,0,370.7,260.185c.9,2.919,1.87,5.805,2.827,8.626,3.514,10.368,6.932,21.212,6.444,32.3a35.76,35.76,0,0,1-1.8,9.873,25.737,25.737,0,0,1-6.737,10.737c-5.071,4.692-12.152,6.8-19.071,6.8-.2,0-.4,0-.593-.005m-1.425-145.081a7.938,7.938,0,0,1,12.351,9.232,8.013,8.013,0,0,1-.947,1.651c-3.239,4.338-6.451,8.966-9.727,14.028L338,197.751a7.85,7.85,0,0,1-3.108-5.22,7.963,7.963,0,0,1,6.722-9.006,7.91,7.91,0,0,1,4.244.556l2.44,1.04Zm24.437,2.909a82.768,82.768,0,0,1,3.573,23.139A112.426,112.426,0,0,1,376.35,232.8a94.523,94.523,0,0,1-2.849,11.223c-.6,1.806-1.261,3.573-1.993,5.224-.306.675-.629,1.318-.961,1.919a83.9,83.9,0,0,1-19.656-8.633,63.936,63.936,0,0,1-8.644-6.283c.516-.994,1.035-1.988,1.582-2.966,3.375-6.037,6.587-11.519,9.714-16.564l3,2.27a2.882,2.882,0,1,0,3.476-4.6l-3.39-2.561c3.283-5.09,6.5-9.728,9.732-14.06a13.7,13.7,0,0,0-19.025-19.293,13.673,13.673,0,0,0-15.557,4.714,13.71,13.71,0,0,0,.391,16.918,13.742,13.742,0,0,0,2.371,2.256l14.381,10.866c-3.26,5.246-6.608,10.948-10.125,17.24-.308.549-.591,1.112-.889,1.666A61.256,61.256,0,0,1,333,226.357a68.282,68.282,0,0,1-10.729-22.125,86.433,86.433,0,0,1-3.313-25.2,68.789,68.789,0,0,0-.925,26.116,65.03,65.03,0,0,0,9.279,25.1,60.114,60.114,0,0,0,6.94,8.969c-1.553,3.053-3.127,6.162-4.633,9.279-9.91,20.5-21.53,52.7-5.378,73.18,5.8,7.354,15.072,11.442,24.393,12.35,9.213.9,19.007-1.275,25.987-7.354,6.611-5.757,10.119-14.492,10.936-23.219.791-8.44-.653-16.729-2.893-24.82-1.091-3.941-2.371-7.834-3.673-11.676-.965-2.845-1.94-5.752-2.839-8.672a18.767,18.767,0,0,0,1.637-2.447,34.456,34.456,0,0,0,1.554-3.118,52.947,52.947,0,0,0,2.237-6.159,87.579,87.579,0,0,0,2.755-12.4,100.966,100.966,0,0,0,.687-25.1,75.525,75.525,0,0,0-6.395-24.227,50.685,50.685,0,0,0-15.249-19.323,58.926,58.926,0,0,1,11.406,20.828" transform="translate(-316.216 -165.513)" fill="#fff"/>
    </clipPath>
    <clipPath id="clip-path-4">
      <path id="Path_78191" data-name="Path 78191" d="M140.955,0a7.577,7.577,0,0,0-5.483,2.326A7.58,7.58,0,0,0,129.988,0h-.078c-3.754.017-7.348,2.468-8.892,3.525L118.837,5.02C114.584,7.932,87.264,27.983,83,30.879h0L80.155,32.8l-7.777,5.3-3.859,2.66c-1.244.836-2.561,1.641-3.9,2.514a34.15,34.15,0,0,0-7.889,6.469,20.2,20.2,0,0,0-1.661,2.243,21.075,21.075,0,0,0-1.324,2.471,36.436,36.436,0,0,0-1.77,5.037c-.474,1.658-.848,3.281-1.265,4.841-.2.744-.446,1.612-.653,2.44s-.395,1.663-.576,2.487c-.723,3.292-1.308,6.519-2.21,9.588a20.138,20.138,0,0,1-4.183,8.223A20.352,20.352,0,0,1,39.6,90.1a40.277,40.277,0,0,1-3.987,2.455A23.855,23.855,0,0,0,44.1,88.34a15.571,15.571,0,0,0,3.357-3.833,30.174,30.174,0,0,0,2.358-4.579c1.309-3.17,2.219-6.439,3.182-9.567.24-.782.49-1.554.741-2.314s.511-1.474.8-2.313l1.576-4.69a30.933,30.933,0,0,1,1.76-4.2,18.167,18.167,0,0,1,1.083-1.792,14.921,14.921,0,0,1,1.3-1.578,31.276,31.276,0,0,1,6.973-5.18c1.319-.78,2.687-1.582,4.068-2.464l3.957-2.6L83.1,37.984c.952-.643,1.893-1.3,2.841-1.95l.013.024c4.268-2.9,31.594-22.954,35.852-25.871l2.181-1.494c5.152-3.528,6.905-2.788,7.858-1.749a1.7,1.7,0,0,1,.519,1.294,7.453,7.453,0,0,1-2.431,4.308c-3.03,2.921-29.4,23.219-32.727,26.41-4.013,3.846-8.068,7.731-11.762,11.3a9.488,9.488,0,0,0-3.838.491,10.06,10.06,0,0,0-4.271,2.826c-2.312,2.568-3.284,5.812-3.93,8.618a82.757,82.757,0,0,1-2.117,8.073A20.772,20.772,0,0,1,69.679,73.9c-.668,1.153-1.45,2.347-2.176,3.519q-1.114,1.764-2.291,3.486c-.77,1.163-1.573,2.3-2.394,3.428A65.306,65.306,0,0,0,68.694,78.5c.947-1.034,1.823-2.064,2.731-3.2a22.819,22.819,0,0,0,2.351-3.774,66.763,66.763,0,0,0,3.13-8.124,26.016,26.016,0,0,1,1.465-3.624,10.349,10.349,0,0,1,1.986-2.724,5.429,5.429,0,0,1,2.5-1.374,4.932,4.932,0,0,1,2.692,0,3.432,3.432,0,0,1,1.062.557,3.382,3.382,0,0,1,.8.8,2.506,2.506,0,0,1,.318,1.9,4.868,4.868,0,0,1-.149.643c-.061.226-.178.59-.273.888l-.667,1.995A24.953,24.953,0,0,0,85.458,67.2l-.041.331-.027.28-.054.56-.092,1.117Q85.159,70.6,85.1,71.71c-.078,1.477-.124,2.942-.154,4.4l-.087,8.57a38.491,38.491,0,0,1-.732,7.848c-.122.609-.307,1.177-.475,1.756a16.793,16.793,0,0,1-.669,1.632,13.634,13.634,0,0,1-1.862,2.943,17.473,17.473,0,0,1-1.19,1.311c-.45.422-.908.842-1.386,1.242a30.989,30.989,0,0,1-3.033,2.245,66.613,66.613,0,0,1-6.8,3.771l-3.586,1.761c-.591.289-1.224.622-1.845.955-.611.354-1.221.7-1.8,1.1a40.874,40.874,0,0,0-11.54,12.085,48.166,48.166,0,0,1,12.8-9.44c.579-.271,1.16-.524,1.744-.764.589-.221,1.168-.437,1.806-.652l3.763-1.329a56.533,56.533,0,0,0,7.553-3.288,34.9,34.9,0,0,0,3.651-2.288c.6-.421,1.168-.893,1.741-1.369a22.261,22.261,0,0,0,1.675-1.634,19.553,19.553,0,0,0,4.558-8.528,41.909,41.909,0,0,0,1.136-9.182c.092-2.933.1-5.789.164-8.622.025-1.411.053-2.812.117-4.2q.046-1.039.116-2.066l.077-1.025.088-.967a18.9,18.9,0,0,1,.823-3.562l.635-2.062c.11-.382.21-.695.322-1.16a11.2,11.2,0,0,0,.264-1.455,9.424,9.424,0,0,0-.166-3.2,7.889,7.889,0,0,0-1.389-2.991c-.135-.179-.278-.344-.422-.505,3.171-3.056,6.545-6.29,9.891-9.5s29.7-23.5,32.74-26.423a16.673,16.673,0,0,0,1.842-2.139,16.671,16.671,0,0,0,1.842,2.139c3.035,2.926,29.4,23.227,32.74,26.423s6.72,6.44,9.891,9.5c-.144.161-.287.326-.422.505a7.891,7.891,0,0,0-1.389,2.991,9.411,9.411,0,0,0-.166,3.2,11.168,11.168,0,0,0,.264,1.455c.113.465.212.778.322,1.16l.636,2.062a18.92,18.92,0,0,1,.823,3.562l.089.967.077,1.025q.07,1.027.116,2.066c.064,1.384.092,2.785.117,4.2.065,2.832.072,5.689.164,8.622a41.923,41.923,0,0,0,1.136,9.182,19.554,19.554,0,0,0,4.558,8.528,22.282,22.282,0,0,0,1.675,1.634c.573.476,1.143.948,1.741,1.369a34.865,34.865,0,0,0,3.651,2.288,56.536,56.536,0,0,0,7.552,3.288l3.763,1.329c.638.215,1.217.431,1.806.652.584.239,1.165.492,1.745.764a48.161,48.161,0,0,1,12.8,9.44,40.873,40.873,0,0,0-11.54-12.085c-.582-.4-1.192-.746-1.8-1.1-.621-.333-1.255-.666-1.845-.955l-3.586-1.761a66.619,66.619,0,0,1-6.8-3.771,30.924,30.924,0,0,1-3.033-2.245c-.478-.4-.936-.819-1.386-1.242a17.466,17.466,0,0,1-1.19-1.311,13.606,13.606,0,0,1-1.862-2.943,16.724,16.724,0,0,1-.669-1.632c-.169-.579-.354-1.147-.475-1.756a38.452,38.452,0,0,1-.732-7.848L186,76.105c-.03-1.454-.076-2.918-.154-4.4q-.058-1.108-.142-2.223l-.092-1.117-.054-.56-.027-.28-.041-.331a24.955,24.955,0,0,0-1.18-4.736l-.667-1.995c-.1-.3-.212-.662-.273-.888a4.94,4.94,0,0,1-.149-.643,2.507,2.507,0,0,1,.319-1.9,3.373,3.373,0,0,1,.8-.8,3.429,3.429,0,0,1,1.062-.557,4.932,4.932,0,0,1,2.692,0,5.427,5.427,0,0,1,2.5,1.374,10.347,10.347,0,0,1,1.986,2.724,26.04,26.04,0,0,1,1.465,3.624,66.731,66.731,0,0,0,3.13,8.124,22.805,22.805,0,0,0,2.351,3.774c.907,1.138,1.784,2.168,2.731,3.2a65.369,65.369,0,0,0,5.875,5.834c-.82-1.131-1.624-2.265-2.393-3.428s-1.548-2.31-2.291-3.486c-.726-1.173-1.509-2.366-2.176-3.519a20.756,20.756,0,0,1-1.609-3.639,82.761,82.761,0,0,1-2.117-8.073c-.645-2.806-1.618-6.051-3.93-8.618a10.062,10.062,0,0,0-4.271-2.826,9.489,9.489,0,0,0-3.838-.491c-3.694-3.569-7.748-7.455-11.762-11.3-3.33-3.191-29.7-23.489-32.727-26.41a7.45,7.45,0,0,1-2.431-4.308,1.7,1.7,0,0,1,.519-1.294c.952-1.04,2.705-1.779,7.858,1.749l2.181,1.494c4.258,2.917,31.584,22.971,35.852,25.871l.013-.024c.948.648,1.889,1.306,2.841,1.95l7.841,5.243,3.957,2.6c1.381.882,2.748,1.684,4.068,2.464a31.291,31.291,0,0,1,6.973,5.18,14.893,14.893,0,0,1,1.3,1.578,18.182,18.182,0,0,1,1.084,1.792,30.93,30.93,0,0,1,1.759,4.2l1.576,4.69c.293.838.552,1.546.8,2.313s.5,1.531.741,2.314c.963,3.129,1.873,6.4,3.181,9.567a30.2,30.2,0,0,0,2.358,4.579,15.563,15.563,0,0,0,3.358,3.833,23.853,23.853,0,0,0,8.484,4.219,40.222,40.222,0,0,1-3.987-2.455,20.341,20.341,0,0,1-3.486-3.032,20.136,20.136,0,0,1-4.183-8.223c-.9-3.069-1.487-6.3-2.21-9.588-.182-.824-.363-1.655-.576-2.487s-.453-1.7-.653-2.44c-.417-1.56-.791-3.184-1.265-4.841a36.43,36.43,0,0,0-1.77-5.037,21.069,21.069,0,0,0-1.324-2.471,20.2,20.2,0,0,0-1.662-2.243,34.151,34.151,0,0,0-7.889-6.469c-1.34-.873-2.657-1.677-3.9-2.514l-3.859-2.66-7.777-5.3-2.847-1.921h0c-4.262-2.9-31.582-22.947-35.835-25.86l-2.181-1.494C148.382,2.468,144.787.017,141.034,0Z" transform="translate(-35.613)" fill="#fff"/>
    </clipPath>
    <clipPath id="clip-path-5">
      <path id="Path_78192" data-name="Path 78192" d="M432.422,254.771a6.506,6.506,0,0,0-1,.1,4.878,4.878,0,0,0-1.007.2,5.025,5.025,0,0,0-.966.415,4.371,4.371,0,0,0-.913.67l-.342.313-.417-.163c-.288-.112-.56-.228-.8-.306a5.251,5.251,0,0,0-.776-.189,5.33,5.33,0,0,0-1.6-.022,5.431,5.431,0,0,0-2.907,1.368,5.585,5.585,0,0,0-1.662,2.819,5.667,5.667,0,0,0,2.343,5.971l2.968,2.077,5,3.5c.382-.548.769-1.087,1.156-1.624.241-.34.48-.653.7-.983l.686-1.018,2.745-4.073c.433-.671.988-1.4,1.252-1.935a4.963,4.963,0,0,0,.5-1.927,4.871,4.871,0,0,0-1.353-3.655,4.936,4.936,0,0,0-3.534-1.54h-.067" transform="translate(-419.876 -254.77)" fill="#fff"/>
    </clipPath>
  </defs>
  <g id="Group_40204" data-name="Group 40204">
    <g id="Group_40203" data-name="Group 40203" clip-path="url(#clip-path)">
      <path id="Path_78174" data-name="Path 78174" d="M13.4,728.264,4.529,713.022v10.714A4.529,4.529,0,0,1,0,728.264V706.217H4.649l8.747,15v-10.47a4.526,4.526,0,0,1,4.526-4.526v22.048Z" transform="translate(0 -540.251)" fill="#fff"/>
      <path id="Path_78175" data-name="Path 78175" d="M108.059,723.83H99.808l-.018.053a6.411,6.411,0,0,1-6.081,4.381l6.985-19.691a3.541,3.541,0,0,1,6.683.025l6.81,19.665h-.03a6.41,6.41,0,0,1-6.093-4.419Zm-1.23-3.787-2.866-8.623-2.893,8.623Z" transform="translate(-71.687 -540.251)" fill="#fff"/>
      <path id="Path_78176" data-name="Path 78176" d="M198.647,719.52v5.03a3.714,3.714,0,0,1-3.714,3.714h-.814V709.13a2.913,2.913,0,0,1,2.913-2.913h8.911a5.728,5.728,0,0,1,4.282,1.509,6.107,6.107,0,0,1,1.663,4.464,5.391,5.391,0,0,1-3.759,5.451,4.143,4.143,0,0,1,2.589,2.064,29.792,29.792,0,0,1,.49,5.942,1.942,1.942,0,0,0,.956,1.786v.832h-1.827a3.7,3.7,0,0,1-3.714-3.677v-.049c0-.41.009-.912.03-1.51v-.893q0-2.616-2.8-2.616Zm0-3.788h5.479a3.891,3.891,0,0,0,2.4-.555,2.925,2.925,0,0,0,.83-2.339,2.747,2.747,0,0,0-.83-2.249,3.816,3.816,0,0,0-2.4-.585h-5.479Z" transform="translate(-148.499 -540.251)" fill="#fff"/>
      <path id="Path_78177" data-name="Path 78177" d="M384.172,723.83H375.92l-.017.053a6.411,6.411,0,0,1-6.081,4.381l6.985-19.692a3.539,3.539,0,0,1,6.679.025l6.813,19.667h-.03a6.41,6.41,0,0,1-6.094-4.422Zm-1.233-3.787-2.863-8.623-2.9,8.623Z" transform="translate(-282.911 -540.251)" fill="#fff"/>
      <path id="Path_78178" data-name="Path 78178" d="M487.419,723.83h-8.252l-.017.053a6.411,6.411,0,0,1-6.081,4.381l6.986-19.692a3.539,3.539,0,0,1,6.679.025l6.813,19.667h-.03a6.411,6.411,0,0,1-6.094-4.422Zm-1.233-3.787-2.863-8.623-2.9,8.623Z" transform="translate(-361.894 -540.251)" fill="#fff"/>
      <path id="Path_78179" data-name="Path 78179" d="M636.81,720.9v2.834a4.526,4.526,0,0,1-4.526,4.526V706.217a4.525,4.525,0,0,1,4.526,4.526v5.175l7.271-8.182a4.527,4.527,0,0,1,3.383-1.519h3.326l-8.807,9.484,9.731,12.563h-3.139a4.526,4.526,0,0,1-3.637-1.833l-5.848-7.9Z" transform="translate(-483.693 -540.251)" fill="#fff"/>
      <path id="Path_78180" data-name="Path 78180" d="M757.623,706.216h.03v14.6a7.07,7.07,0,0,1-2.156,5.542,10.78,10.78,0,0,1-13.176,0,7.07,7.07,0,0,1-2.156-5.542v-14.6a4.525,4.525,0,0,1,4.526,4.526v10.07q0,3.911,4.219,3.911,4.185,0,4.189-3.911v-10.07a4.525,4.525,0,0,1,4.525-4.526" transform="translate(-566.22 -540.25)" fill="#fff"/>
      <path id="Path_78181" data-name="Path 78181" d="M844.316,711.114v12.625a4.526,4.526,0,0,1-4.526,4.526V706.217h6.775l4,17.552,3.849-17.552h6.835v22.048a4.526,4.526,0,0,1-4.526-4.526V711.114l-3.408,14.941a2.842,2.842,0,0,1-5.54.009Z" transform="translate(-642.433 -540.251)" fill="#fff"/>
      <path id="Path_78182" data-name="Path 78182" d="M289.68,714.382h0v-5.523a2.642,2.642,0,0,0-2.642-2.642h-1.883l1.658,5.985a2.975,2.975,0,0,0,2.867,2.18" transform="translate(-218.141 -540.251)" fill="#fff"/>
      <path id="Path_78183" data-name="Path 78183" d="M42.835,585.472H40.351l4.067-6.13a9.68,9.68,0,0,0-8.2,4.538l-3.608,5.755h8.131a6.723,6.723,0,0,1,6.548,6.162H30.038c-3.452-.065-4.808-1.227-5.647-4.937-.741-3.258-3.421-5.355-7.163-5.355h-9.2C3.257,585.506,0,588.86,0,594.087v11.39a4.451,4.451,0,0,0,4.452-4.451V594.8c0-3.26,1.258-4.906,3.777-4.906h2.065a8.265,8.265,0,0,0-.515,3.2,7.275,7.275,0,0,0,7.427,7.126,7.287,7.287,0,0,0,5.929-2.58,9.014,9.014,0,0,0,5.564,2.387v.1H52.192v-1.677c0-7.584-3.194-12.325-9.357-12.971m-25.543,11.1h-.321c-1.646,0-2.774-1.516-2.774-3.678,0-2.129,1.129-3.71,3-3.71,1.806,0,2.966,1.42,2.966,3.581,0,2.549-.968,3.807-2.872,3.807" transform="translate(0 -443.192)" fill="#fff"/>
      <path id="Path_78184" data-name="Path 78184" d="M245.934,595.7c-3.323,0-3.872-1.161-3.872-3.356v-8.613a4.517,4.517,0,0,0-4.518-4.517V594.7c0,3.323,2,5.324,5.454,5.324H345.058V595.7h-7.485c-1.195-.484-1.806-1.613-1.806-3.323a3.934,3.934,0,0,1,.678-2.388,2.346,2.346,0,0,1,2.1-1.1,2.507,2.507,0,0,1,2.582,1.9l3.711-1.71a6.667,6.667,0,0,0-6.195-4.1,6.875,6.875,0,0,0-5.262,2.226,7.734,7.734,0,0,0-2.03,5.388,9.012,9.012,0,0,0,.643,3.1Z" transform="translate(-181.72 -443.091)" fill="#fff"/>
      <path id="Path_78185" data-name="Path 78185" d="M762.176,605.569a4.518,4.518,0,0,0-4.518,4.518V612.7c0,2.1-.776,3.162-2.292,3.162H718.621V605.569a4.549,4.549,0,0,0-4.549,4.549V617.6q0,4.261-4.455,4.259A3.245,3.245,0,0,0,713.738,625a6.083,6.083,0,0,0,4.656-4.815h37.941a5.356,5.356,0,0,0,4.42-1.969,6.457,6.457,0,0,0,1.421-4.258Z" transform="translate(-542.852 -463.256)" fill="#fff"/>
      <path id="Path_78186" data-name="Path 78186" d="M916.381,578.345h-.365a2.09,2.09,0,1,0,0,4.179h.365a2.09,2.09,0,1,0,0-4.179" transform="translate(-699.147 -442.43)" fill="#fff"/>
    </g>
  </g>
  <g id="Group_40206" data-name="Group 40206" transform="translate(74.313 38.897)">
    <g id="Group_40205" data-name="Group 40205" clip-path="url(#clip-path-2)">
      <rect id="Rectangle_22489" data-name="Rectangle 22489" width="78.752" height="169.643" transform="translate(-8.624 0.001) rotate(-0.167)" fill="#fff"/>
    </g>
  </g>
  <g id="Group_40208" data-name="Group 40208">
    <g id="Group_40207" data-name="Group 40207" clip-path="url(#clip-path)">
      <path id="Path_78188" data-name="Path 78188" d="M315.035,206.749a5.356,5.356,0,1,1-4.959-5.726,5.356,5.356,0,0,1,4.959,5.726" transform="translate(-232.814 -153.771)" fill="#fff"/>
      <path id="Path_78189" data-name="Path 78189" d="M503.722,148.124a5.356,5.356,0,1,1-4.959-5.726,5.356,5.356,0,0,1,4.959,5.726" transform="translate(-377.159 -108.923)" fill="#fff"/>
      <path id="Path_78190" data-name="Path 78190" d="M466.29,614.5v4.324h53.757V614.5h-7.484c-1.195-.484-1.806-1.613-1.806-3.323a3.933,3.933,0,0,1,.678-2.388,2.346,2.346,0,0,1,2.1-1.1,2.507,2.507,0,0,1,2.582,1.9l3.711-1.711a6.667,6.667,0,0,0-6.195-4.1,6.873,6.873,0,0,0-5.262,2.226,7.733,7.733,0,0,0-2.03,5.388,9.016,9.016,0,0,0,.643,3.1Z" transform="translate(-356.708 -461.891)" fill="#fff"/>
    </g>
  </g>
  <g id="Group_40210" data-name="Group 40210" transform="translate(8.369)">
    <g id="Group_40209" data-name="Group 40209" clip-path="url(#clip-path-4)">
      <rect id="Rectangle_22491" data-name="Rectangle 22491" width="200.077" height="123.905" transform="translate(-0.36 0.001) rotate(-0.167)" fill="#fff"/>
    </g>
  </g>
  <g id="Group_40212" data-name="Group 40212" transform="translate(98.674 59.873)">
    <g id="Group_40211" data-name="Group 40211" clip-path="url(#clip-path-5)">
      <rect id="Rectangle_22492" data-name="Rectangle 22492" width="22.086" height="21.493" transform="matrix(0.949, -0.316, 0.316, 0.949, -5.139, 1.674)" fill="#fff"/>
    </g>
  </g>
</svg>
