<svg id="Get_it_on_Google_play" xmlns="http://www.w3.org/2000/svg" width="211.39" height="77.021" viewBox="0 0 211.39 77.021">
  <path id="path14" d="M203.561,77.021H7.829C3.525,77.021,0,72.687,0,67.395V9.628C0,4.336,3.525,0,7.829,0H203.561c4.3,0,7.829,4.336,7.829,9.628V67.395C211.392,72.687,207.867,77.021,203.561,77.021Z" transform="translate(0 0)" fill="#23a2a4"/>
  <g id="Group_10753" data-name="Group 10753" transform="translate(24.511 20.05)">
    <path id="Path_6875" data-name="Path 6875" d="M3533.778,582.409a4.493,4.493,0,0,1-3.241-1.305,4.609,4.609,0,0,1,0-6.492,4.479,4.479,0,0,1,3.241-1.312,4.667,4.667,0,0,1,1.808.369,3.605,3.605,0,0,1,1.388.978l.067.081-.909.908-.081-.094a2.809,2.809,0,0,0-2.272-.962,3.2,3.2,0,0,0-2.27.908,3.424,3.424,0,0,0,0,4.739,3.233,3.233,0,0,0,2.27.907,3.18,3.18,0,0,0,2.321-.914,2.458,2.458,0,0,0,.674-1.527h-3.109v-1.252h4.369l.02.089a2.978,2.978,0,0,1,.067.667,3.96,3.96,0,0,1-1.1,2.917A4.341,4.341,0,0,1,3533.778,582.409Z" transform="translate(-3488.102 -573.3)" fill="#fff"/>
    <path id="Path_6876" data-name="Path 6876" d="M4147.744,593.718H4142.5V585h5.244v1.272h-3.908v2.462h3.524v1.252h-3.524v2.462h3.908Z" transform="translate(-4091.124 -584.804)" fill="#fff"/>
    <path id="Path_6877" data-name="Path 6877" d="M4514.434,593.718H4513.1v-7.447h-2.4V585h6.135v1.272h-2.4Z" transform="translate(-4453.153 -584.804)" fill="#fff"/>
    <path id="Path_6878" data-name="Path 6878" d="M5119.533,593.718H5118.2V585h1.334Z" transform="translate(-5050.475 -584.804)" fill="#fff"/>
    <path id="Path_6879" data-name="Path 6879" d="M5271.034,593.718h-1.327v-7.447H5267.3V585h6.141v1.272h-2.408v7.447Z" transform="translate(-5197.076 -584.804)" fill="#fff"/>
    <path id="Path_6880" data-name="Path 6880" d="M5840.038,582.605a4.383,4.383,0,0,1-3.237-1.32,4.667,4.667,0,0,1,0-6.465,4.6,4.6,0,0,1,6.461.008,4.649,4.649,0,0,1,.007,6.458h0A4.381,4.381,0,0,1,5840.038,582.605Zm-2.258-2.193a3.221,3.221,0,0,0,4.508,0,3.479,3.479,0,0,0,0-4.722,3.221,3.221,0,0,0-4.508,0,3.485,3.485,0,0,0,0,4.722Z" transform="translate(-5755.755 -573.496)" fill="#fff"/>
    <path id="Path_6881" data-name="Path 6881" d="M6462.453,593.718h-1.33l-.035-.054-4.2-6.656.039,1.3v5.407H6455.6V585h1.52l4.038,6.384-.037-1.3V585h1.333Z" transform="translate(-6365.463 -584.804)" fill="#fff"/>
    <path id="path46" d="M3548.121,1447.364a6.024,6.024,0,1,0,6.122,6.025A5.974,5.974,0,0,0,3548.121,1447.364Zm0,9.674a3.657,3.657,0,1,1,3.443-3.65A3.5,3.5,0,0,1,3548.121,1457.038Zm-13.341-9.674a6.024,6.024,0,1,0,6.114,6.025A5.968,5.968,0,0,0,3534.78,1447.364Zm0,9.674a3.657,3.657,0,1,1,3.436-3.65A3.5,3.5,0,0,1,3534.78,1457.038Zm-15.875-7.827v2.56h6.185a5.287,5.287,0,0,1-1.406,3.214,6.4,6.4,0,0,1-4.779,1.868,6.8,6.8,0,0,1,0-13.6,6.6,6.6,0,0,1,4.659,1.825l1.825-1.8a9.076,9.076,0,0,0-6.484-2.579,9.359,9.359,0,1,0,0,18.711,8.7,8.7,0,0,0,6.6-2.628,8.381,8.381,0,0,0,2.239-5.974,8.615,8.615,0,0,0-.139-1.6Zm64.918,1.984a5.644,5.644,0,0,0-5.219-3.831,5.756,5.756,0,0,0-5.745,6.025,5.926,5.926,0,0,0,6.044,6.022,6.056,6.056,0,0,0,5.08-2.67l-2.078-1.369a3.491,3.491,0,0,1-3,1.666,3.1,3.1,0,0,1-2.951-1.825l8.151-3.332S3583.823,1451.194,3583.823,1451.194Zm-8.312,2.006a3.322,3.322,0,0,1,3.182-3.512,2.37,2.37,0,0,1,2.267,1.279Zm-6.624,5.843h2.679v-17.7h-2.679Zm-4.388-10.337h-.09a4.246,4.246,0,0,0-3.2-1.343,6.026,6.026,0,0,0,0,12.047,4.177,4.177,0,0,0,3.2-1.369h.09v.864c0,2.3-1.246,3.541-3.254,3.541a3.381,3.381,0,0,1-3.072-2.152l-2.33.962a5.814,5.814,0,0,0,5.4,3.563c3.142,0,5.793-1.827,5.793-6.272v-10.817H3564.5Zm-3.065,8.332a3.661,3.661,0,0,1,0-7.3,3.676,3.676,0,0,1,0,7.3Zm34.932-15.7h-6.407v17.7h2.673v-6.708h3.737a5.51,5.51,0,1,0,0-10.994Zm.071,8.533h-3.806V1443.8h3.806a3.036,3.036,0,1,1,0,6.069Zm16.519-2.544a5.024,5.024,0,0,0-4.764,2.709l2.372.982a2.536,2.536,0,0,1,2.441-1.3,2.567,2.567,0,0,1,2.813,2.278v.186a5.928,5.928,0,0,0-2.792-.685c-2.553,0-5.156,1.389-5.156,3.983,0,2.373,2.091,3.9,4.443,3.9a3.792,3.792,0,0,0,3.414-1.734h.092v1.369h2.581v-6.79C3618.4,1449.087,3616.028,1447.33,3612.957,1447.33Zm-.323,9.7c-.874,0-2.091-.429-2.091-1.5,0-1.371,1.519-1.9,2.833-1.9a4.832,4.832,0,0,1,2.443.6A3.231,3.231,0,0,1,3612.634,1457.031Zm15.17-9.314-3.072,7.675h-.093l-3.175-7.675h-2.882l4.771,10.725-2.722,5.967h2.791l7.353-16.692Zm-24.089,11.326h2.68v-17.7h-2.68Z" transform="translate(-3468.534 -1426.165)" fill="#fff"/>
    <path id="Union_3" data-name="Union 3" d="M.514,28.476h0A2.249,2.249,0,0,1,0,26.894V2.027A2.259,2.259,0,0,1,.514.447h0Q.549.409.586.374L.594.366h0A1.833,1.833,0,0,1,2.818.375L18.9,9.651h0l.1.058h0l5.421,3.131c1.547.889,1.547,2.349,0,3.243L19,19.209l-.042.022L2.819,28.542a2.534,2.534,0,0,1-1.245.379A1.412,1.412,0,0,1,.514,28.476Z" transform="translate(0 4.258)" fill="#fff"/>
  </g>
</svg>
