<svg xmlns="http://www.w3.org/2000/svg" width="52.157" height="33.679" viewBox="0 0 52.157 33.679">
  <g id="Group_41729" data-name="Group 41729" transform="translate(-658.87 -4652.571)">
    <path id="Path_78807" data-name="Path 78807" d="M21.558,0H8.252a2.3,2.3,0,0,0-2.3,2.3V29.323a2.3,2.3,0,0,0,2.3,2.3H21.558a2.3,2.3,0,0,0,2.3-2.3V2.3A2.3,2.3,0,0,0,21.558,0ZM11.622,1.4h6.569c.166,0,.3.248.3.554s-.135.555-.3.555H11.622c-.167,0-.3-.249-.3-.555S11.455,1.4,11.622,1.4ZM14.906,29.35a1.469,1.469,0,1,1,1.467-1.47A1.471,1.471,0,0,1,14.906,29.35Zm7.229-5.035H7.676V3.887H22.135V24.316Z" transform="translate(663.332 4654.626)" fill="#fff"/>
    <path id="Path_78808" data-name="Path 78808" d="M17.216,2.81A9.593,9.593,0,0,0,2.031,14.224L0,20.025l5.8-2.031A9.593,9.593,0,0,0,17.216,2.81ZM15.175,13.156l-1.107,1.107c-.917.917-3.521-.2-5.814-2.492s-3.409-4.9-2.492-5.814L6.869,4.851a.587.587,0,0,1,.831,0L9.084,6.235a.587.587,0,0,1,0,.831L8.253,7.9a8.149,8.149,0,0,0,3.876,3.876l.831-.831a.587.587,0,0,1,.831,0l1.384,1.384A.587.587,0,0,1,15.175,13.156Z" transform="translate(691.002 4665.201)" fill="#fff"/>
    <path id="Path_78809" data-name="Path 78809" d="M56.007,4.465a.646.646,0,0,0-.913.913,6.194,6.194,0,0,1,0,8.749.646.646,0,1,0,.913.913A7.486,7.486,0,0,0,56.007,4.465Z" transform="translate(639.412 4648.295)" fill="#fff"/>
    <path id="Path_78810" data-name="Path 78810" d="M51.8,6.741a.646.646,0,0,0-.913.913,4.24,4.24,0,0,1,0,5.989.646.646,0,1,0,.913.913,5.531,5.531,0,0,0,0-7.815Z" transform="translate(640.904 4647.488)" fill="#fff"/>
    <path id="Path_78811" data-name="Path 78811" d="M3.1,5.378a.646.646,0,0,0-.913-.913,7.486,7.486,0,0,0,0,10.575.646.646,0,0,0,.913-.913A6.193,6.193,0,0,1,3.1,5.378Z" transform="translate(658.869 4648.295)" fill="#fff"/>
    <path id="Path_78812" data-name="Path 78812" d="M7.625,6.465a.645.645,0,0,0-.913,0,5.531,5.531,0,0,0,0,7.815.646.646,0,0,0,.913-.913,4.24,4.24,0,0,1,0-5.989A.646.646,0,0,0,7.625,6.465Z" transform="translate(657.063 4647.586)" fill="#fff"/>
  </g>
</svg>
