<svg xmlns="http://www.w3.org/2000/svg" xmlns:xlink="http://www.w3.org/1999/xlink" width="120.62" height="114.642" viewBox="0 0 120.62 114.642">
  <defs>
    <filter id="ashkan-forouzani-l-NIPb-9Njg-unsplash" x="0" y="0" width="120.62" height="114.642" filterUnits="userSpaceOnUse">
      <feOffset dy="3" input="SourceAlpha"/>
      <feGaussianBlur stdDeviation="3" result="blur"/>
      <feFlood flood-color="#f0f4fc"/>
      <feComposite operator="in" in2="blur"/>
      <feComposite in="SourceGraphic"/>
    </filter>
  </defs>
  <g id="Group_40372" data-name="Group 40372" transform="translate(8.809 6.412)">
    <g id="Group_111" data-name="Group 111" transform="translate(0 0)">
      <g transform="matrix(1, 0, 0, 1, -8.81, -6.41)" filter="url(#ashkan-forouzani-l-NIPb-9Njg-unsplash)">
        <g id="ashkan-forouzani-l-NIPb-9Njg-unsplash-2" data-name="ashkan-forouzani-l-NIPb-9Njg-unsplash" transform="translate(9 6)" fill="#90d0d1" stroke="#23a2a4" stroke-width="2">
          <rect width="102.62" height="96.642" rx="12" stroke="none"/>
          <rect x="1" y="1" width="100.62" height="94.642" rx="11" fill="none"/>
        </g>
      </g>
    </g>
    <g id="Shield" transform="translate(17.191 11.588)">
      <path id="Path_78363" data-name="Path 78363" d="M62.152,14.642,34.831,2.224a2.47,2.47,0,0,0-2.054,0L5.456,14.642A2.482,2.482,0,0,0,4,16.9V30.054A44.121,44.121,0,0,0,32.955,71.393a2.489,2.489,0,0,0,1.7,0A44.124,44.124,0,0,0,63.607,30.054V16.9a2.483,2.483,0,0,0-1.455-2.26ZM58.64,30.054A39.145,39.145,0,0,1,33.8,66.4,39.144,39.144,0,0,1,8.967,30.054V18.5L33.8,7.212,58.64,18.5Z" transform="translate(0 0)" fill="#fff"/>
    </g>
  </g>
</svg>
