<svg xmlns="http://www.w3.org/2000/svg" xmlns:xlink="http://www.w3.org/1999/xlink" width="120.62" height="114.642" viewBox="0 0 120.62 114.642">
  <defs>
    <filter id="ashkan-forouzani-l-NIPb-9Njg-unsplash" x="0" y="0" width="120.62" height="114.642" filterUnits="userSpaceOnUse">
      <feOffset dy="3" input="SourceAlpha"/>
      <feGaussianBlur stdDeviation="3" result="blur"/>
      <feFlood flood-color="#f0f4fc"/>
      <feComposite operator="in" in2="blur"/>
      <feComposite in="SourceGraphic"/>
    </filter>
  </defs>
  <g id="Group_40774" data-name="Group 40774" transform="translate(9 6)">
    <g id="Group_40773" data-name="Group 40773" transform="translate(0 0)">
      <g transform="matrix(1, 0, 0, 1, -9, -6)" filter="url(#ashkan-forouzani-l-NIPb-9Njg-unsplash)">
        <g id="ashkan-forouzani-l-NIPb-9Njg-unsplash-2" data-name="ashkan-forouzani-l-NIPb-9Njg-unsplash" transform="translate(9 6)" fill="#90d0d1" stroke="#23a2a4" stroke-width="2">
          <rect width="102.62" height="96.642" rx="12" stroke="none"/>
          <rect x="1" y="1" width="100.62" height="94.642" rx="11" fill="none"/>
        </g>
      </g>
    </g>
    <g id="Heartcare" transform="translate(19.798 15.58)">
      <path id="Path_78522" data-name="Path 78522" d="M41.072,7.967A10.2,10.2,0,0,0,32.424,1.04,8.18,8.18,0,0,0,25.3,4.1q-.208.2-.422.408-.213-.2-.422-.408a8.171,8.171,0,0,0-7.126-3.06A10.2,10.2,0,0,0,8.68,7.967,11.127,11.127,0,0,0,11.193,19.63l12.18,12.357a2.11,2.11,0,0,0,3,0L38.559,19.63A11.127,11.127,0,0,0,41.072,7.967Zm-5.517,8.7L24.876,27.5,14.2,16.669A6.964,6.964,0,0,1,12.65,9.387a6.072,6.072,0,0,1,5.118-4.155c1.695-.166,2.48.669,3.753,1.9a23.416,23.416,0,0,0,2.071,1.843,2.107,2.107,0,0,0,2.565,0A23.416,23.416,0,0,0,28.229,7.13c1.52-1.47,2.19-2.053,3.753-1.9A6.072,6.072,0,0,1,37.1,9.387,6.962,6.962,0,0,1,35.555,16.669Z" transform="translate(7.748 0)" fill="#fff"/>
      <path id="Path_78523" data-name="Path 78523" d="M20.666,26.685a6.582,6.582,0,0,0-7.017-1.477V16.325a6.325,6.325,0,1,0-12.65,0V39.516a2.107,2.107,0,0,0,.618,1.491l5.707,5.707v5.452a2.108,2.108,0,0,0,4.217,0V45.841a2.107,2.107,0,0,0-.618-1.491L5.217,38.643V16.325a2.108,2.108,0,0,1,4.217,0V31.083a6.673,6.673,0,0,0,1.927,4.908l5.015,5.015a2.108,2.108,0,1,0,2.981-2.981L14.341,33.01a2.364,2.364,0,1,1,3.344-3.344L26.3,38.281V52.166a2.108,2.108,0,1,0,4.217,0V37.408a2.107,2.107,0,0,0-.618-1.491Z" transform="translate(0 9.966)" fill="#fff"/>
      <path id="Path_78524" data-name="Path 78524" d="M40.191,10a6.332,6.332,0,0,0-6.325,6.325v8.884a6.582,6.582,0,0,0-7.017,1.476l-9.232,9.233A2.107,2.107,0,0,0,17,37.408V52.166a2.108,2.108,0,1,0,4.217,0V38.281l8.614-8.614a2.364,2.364,0,1,1,3.344,3.344l-5.015,5.015a2.108,2.108,0,1,0,2.981,2.981l5.015-5.016a6.672,6.672,0,0,0,1.927-4.908V16.325a2.108,2.108,0,0,1,4.217,0V38.643L36.592,44.35a2.107,2.107,0,0,0-.618,1.491v6.325a2.108,2.108,0,1,0,4.217,0V46.714L45.9,41.006a2.107,2.107,0,0,0,.618-1.491V16.325A6.332,6.332,0,0,0,40.191,10Z" transform="translate(17.732 9.966)" fill="#fff"/>
    </g>
  </g>
</svg>
