<svg xmlns="http://www.w3.org/2000/svg" xmlns:xlink="http://www.w3.org/1999/xlink" width="120.27" height="114.313" viewBox="0 0 120.27 114.313">
  <defs>
    <filter id="ashkan-forouzani-l-NIPb-9Njg-unsplash" x="0" y="0" width="120.27" height="114.313" filterUnits="userSpaceOnUse">
      <feOffset dy="3" input="SourceAlpha"/>
      <feGaussianBlur stdDeviation="3" result="blur"/>
      <feFlood flood-color="#f0f4fc"/>
      <feComposite operator="in" in2="blur"/>
      <feComposite in="SourceGraphic"/>
    </filter>
  </defs>
  <g id="Group_40300" data-name="Group 40300" transform="translate(9.039 5.634)">
    <g id="Group_111" data-name="Group 111" transform="translate(-0.039 0.366)">
      <g transform="matrix(1, 0, 0, 1, -9, -6)" filter="url(#ashkan-forouzani-l-NIPb-9Njg-unsplash)">
        <g id="ashkan-forouzani-l-NIPb-9Njg-unsplash-2" data-name="ashkan-forouzani-l-NIPb-9Njg-unsplash" transform="translate(9 6)" fill="#90d0d1" stroke="#23a2a4" stroke-width="2">
          <rect width="102.27" height="96.313" rx="12" stroke="none"/>
          <rect x="1" y="1" width="100.27" height="94.313" rx="11" fill="none"/>
        </g>
      </g>
    </g>
    <g id="Chemistry" transform="translate(26.263 14.857)">
      <path id="Path_78227" data-name="Path 78227" d="M38.4,2H11.262a2.262,2.262,0,1,0,0,4.524h2.262v47.5a11.309,11.309,0,0,0,22.618,0V6.524H38.4A2.262,2.262,0,0,0,38.4,2ZM31.618,54.021a6.785,6.785,0,1,1-13.571,0V44.2a10.705,10.705,0,0,0,1.515.09,11.332,11.332,0,0,0,6.446-1.9,6.658,6.658,0,0,1,4.116-1.267,7.151,7.151,0,0,1,1.493.136Zm0-17.325a10.179,10.179,0,0,0-1.493-.09,11.211,11.211,0,0,0-6.446,1.9,6.658,6.658,0,0,1-4.116,1.267,7.382,7.382,0,0,1-1.515-.136V33.665h2.262a2.262,2.262,0,1,0,0-4.524H18.047V24.618h2.262a2.262,2.262,0,1,0,0-4.524H18.047V15.571h2.262a2.262,2.262,0,1,0,0-4.524H18.047V6.524H31.618Z" transform="translate(0 0)" fill="#fff"/>
    </g>
  </g>
</svg>
