<svg xmlns="http://www.w3.org/2000/svg" xmlns:xlink="http://www.w3.org/1999/xlink" width="120.62" height="114.642" viewBox="0 0 120.62 114.642">
  <defs>
    <filter id="ashkan-forouzani-l-NIPb-9Njg-unsplash" x="0" y="0" width="120.62" height="114.642" filterUnits="userSpaceOnUse">
      <feOffset dy="3" input="SourceAlpha"/>
      <feGaussianBlur stdDeviation="3" result="blur"/>
      <feFlood flood-color="#f0f4fc"/>
      <feComposite operator="in" in2="blur"/>
      <feComposite in="SourceGraphic"/>
    </filter>
  </defs>
  <g id="Group_40371" data-name="Group 40371" transform="translate(8.682 5.635)">
    <g id="Group_111" data-name="Group 111" transform="translate(0)">
      <g transform="matrix(1, 0, 0, 1, -8.68, -5.64)" filter="url(#ashkan-forouzani-l-NIPb-9Njg-unsplash)">
        <g id="ashkan-forouzani-l-NIPb-9Njg-unsplash-2" data-name="ashkan-forouzani-l-NIPb-9Njg-unsplash" transform="translate(9 6)" fill="#90d0d1" stroke="#23a2a4" stroke-width="2">
          <rect width="102.62" height="96.642" rx="12" stroke="none"/>
          <rect x="1" y="1" width="100.62" height="94.642" rx="11" fill="none"/>
        </g>
      </g>
    </g>
    <g id="Weight" transform="translate(24.318 17.365)">
      <path id="Path_78279" data-name="Path 78279" d="M48.2,2H12.84A8.85,8.85,0,0,0,4,10.84v44.2a8.85,8.85,0,0,0,8.84,8.84H48.2a8.85,8.85,0,0,0,8.84-8.84V10.84A8.85,8.85,0,0,0,48.2,2Zm4.42,53.043a4.425,4.425,0,0,1-4.42,4.42H12.84a4.425,4.425,0,0,1-4.42-4.42V10.84a4.425,4.425,0,0,1,4.42-4.42H48.2a4.425,4.425,0,0,1,4.42,4.42Z" transform="translate(-4 -2)" fill="#fff"/>
      <path id="Path_78280" data-name="Path 78280" d="M25.681,5A18.624,18.624,0,0,0,8.158,17.441a2.21,2.21,0,0,0,.768,2.618c16.622,11.873.623.45,15.471,11.051a2.207,2.207,0,0,0,2.569,0c3.779-2.7,11.692-8.352,15.471-11.051a2.21,2.21,0,0,0,.768-2.618A18.623,18.623,0,0,0,25.681,5Zm-3.8,18.883a6.824,6.824,0,0,1,7.6,0l-3.8,2.714Zm11.305-2.648a11,11,0,0,0-5.3-2.732V16.051a2.21,2.21,0,0,0-4.42,0V18.5a11,11,0,0,0-5.3,2.732L12.97,17.516a14.027,14.027,0,0,1,25.423,0Z" transform="translate(0.84 1.63)" fill="#fff"/>
    </g>
  </g>
</svg>
