<svg xmlns="http://www.w3.org/2000/svg" xmlns:xlink="http://www.w3.org/1999/xlink" width="120.455" height="114.487" viewBox="0 0 120.455 114.487">
  <defs>
    <filter id="ashkan-forouzani-l-NIPb-9Njg-unsplash" x="0" y="0" width="120.455" height="114.487" filterUnits="userSpaceOnUse">
      <feOffset dy="3" input="SourceAlpha"/>
      <feGaussianBlur stdDeviation="3" result="blur"/>
      <feFlood flood-color="#f0f4fc"/>
      <feComposite operator="in" in2="blur"/>
      <feComposite in="SourceGraphic"/>
    </filter>
  </defs>
  <g id="Group_40150" data-name="Group 40150" transform="translate(9.002 5.546)">
    <g id="Group_111" data-name="Group 111" transform="translate(-0.002 0.454)">
      <g transform="matrix(1, 0, 0, 1, -9, -6)" filter="url(#ashkan-forouzani-l-NIPb-9Njg-unsplash)">
        <g id="ashkan-forouzani-l-NIPb-9Njg-unsplash-2" data-name="ashkan-forouzani-l-NIPb-9Njg-unsplash" transform="translate(9 6)" fill="#90d0d1" stroke="#23a2a4" stroke-width="2">
          <rect width="102.455" height="96.487" rx="12" stroke="none"/>
          <rect x="1" y="1" width="100.455" height="94.487" rx="11" fill="none"/>
        </g>
      </g>
    </g>
    <g id="Drug_Medicine" data-name="Drug Medicine" transform="translate(18.997 11.454)">
      <path id="Path_78259" data-name="Path 78259" d="M56.662,24.141H38L18.108,4.249A7.678,7.678,0,1,0,7.249,15.108l9.033,9.033H7.46A2.46,2.46,0,0,0,5,26.6v9.84a27.061,27.061,0,1,0,54.121,0V26.6A2.46,2.46,0,0,0,56.662,24.141ZM10.727,11.629a2.759,2.759,0,1,1,3.9-3.9L31.042,24.141h-7.8ZM54.2,36.441a22.141,22.141,0,1,1-44.281,0v-7.38H54.2Z" transform="translate(0 0)" fill="#fff"/>
      <path id="Path_78260" data-name="Path 78260" d="M37.061,28H12.46a2.46,2.46,0,0,0,0,4.92h24.6a2.46,2.46,0,0,0,0-4.92Z" transform="translate(7.3 37.962)" fill="#fff"/>
    </g>
  </g>
</svg>
