<svg xmlns="http://www.w3.org/2000/svg" width="30.526" height="32.453" viewBox="0 0 30.526 32.453">
  <path id="Path_78704" data-name="Path 78704" d="M26.148,21.257c-1.845-1.578-3.717-2.534-5.54-.958l-1.088.952c-.8.691-2.276,3.921-8-2.663S9.2,10.989,10,10.3l1.094-.953c1.813-1.579,1.129-3.567-.179-5.614L10.127,2.5C8.813.455,7.383-.886,5.566.691l-.982.858A9.219,9.219,0,0,0,.99,7.651C.335,11.987,2.4,16.952,7.14,22.4s9.364,8.188,13.753,8.14a9.244,9.244,0,0,0,6.539-2.708l.986-.859c1.813-1.576.687-3.18-1.16-4.762Z" transform="matrix(0.998, 0.07, -0.07, 0.998, 1.261, -0.061)" fill="#fff"/>
</svg>
