<svg id="svgexport-6_53_" data-name="svgexport-6 (53)" xmlns="http://www.w3.org/2000/svg" width="29.681" height="26.02" viewBox="0 0 29.681 26.02">
  <g id="Group_40162" data-name="Group 40162" transform="translate(0)">
    <g id="Group_40161" data-name="Group 40161">
      <path id="Path_78163" data-name="Path 78163" d="M4.347,16.82a15.215,15.215,0,0,1,5.639-3.1,7.31,7.31,0,0,1-3.725-6.2C6.261,3.374,10.11,0,14.841,0s8.58,3.374,8.58,7.521a7.31,7.31,0,0,1-3.725,6.2,15.215,15.215,0,0,1,5.639,3.1,12.174,12.174,0,0,1,4.347,9.2H27.362c0-6.053-5.617-10.977-12.522-10.977S2.319,19.967,2.319,26.02H0A12.174,12.174,0,0,1,4.347,16.82Zm10.494-3.81c3.452,0,6.261-2.462,6.261-5.488s-2.809-5.488-6.261-5.488S8.58,4.495,8.58,7.521,11.388,13.01,14.841,13.01Z" transform="translate(0)" fill="#fff"/>
    </g>
  </g>
</svg>
