<svg id="undraw_page_not_found_re_e9o6" xmlns="http://www.w3.org/2000/svg" width="943.869" height="616.258" viewBox="0 0 943.869 616.258">
  <path id="Path_78047" data-name="Path 78047" d="M521.124,327.453c8.416-13.686,18.389-28.3,34.006-32.768,18.087-5.175,36.666,5.106,52.426,15.251a1526.536,1526.536,0,0,1,135.954,98.492l-.047.532-101.451-6.879c-24.433-1.657-49.705-3.542-71.3-14.907-8.193-4.312-16.18-10.073-25.465-10.475-11.535-.5-21.593,7.423-29.5,15.7C469,441.352,455.468,516.215,403.013,559.225A1626.116,1626.116,0,0,1,521.124,327.453Z" transform="translate(-55.406 -154.247)" fill="#f2f2f2"/>
  <path id="Path_78048" data-name="Path 78048" d="M303.182,745.013c5.17-6.419,7.283-7.923,12.383-14.4q62.291-79.215,117.1-163.781,37.226-57.434,70.76-117.074Q519.387,421.4,534.477,392.6q11.709-22.33,22.9-44.926c2.133-4.3,4.205-8.625,6.267-12.958,4.859-10.188,9.628-20.426,14.748-30.475,5.834-11.454,12.937-23.462,23.651-31.158a32.591,32.591,0,0,1,16.81-6.36c8.722-.554,16.769,2.987,24.335,6.855C698.533,301.96,750.35,337.54,797.219,378.025A793.27,793.27,0,0,1,922.364,514.614c1.106,1.553,3.722.069,2.605-1.493q-6.594-9.169-13.45-18.141A801.137,801.137,0,0,0,705.655,306.173q-20.025-12.76-40.8-24.323c-6.982-3.887-13.993-7.725-21.126-11.326-6.992-3.531-14.416-6.706-22.4-6.825-27.182-.415-41.256,29.852-50.923,50.218q-4.557,9.614-9.225,19.17-17.64,36.276-36.638,71.89-11.725,21.988-23.963,43.72Q462.49,516.37,419.614,581.3c-37.865,57.34-75.428,107.994-118.565,161.615C299.863,744.4,301.985,746.517,303.182,745.013Z" transform="translate(-124.863 -156.586)" fill="#e4e4e4"/>
  <path id="Path_78049" data-name="Path 78049" d="M194.976,359.39c1.579-1.731,3.149-3.462,4.738-5.193,12.534-13.63,25.984-27.1,43.2-34.917a63.553,63.553,0,0,1,26.256-5.984c9.4.03,18.58,2.453,27.262,5.846,4.1,1.612,8.119,3.442,12.072,5.391,4.517,2.235,8.954,4.619,13.369,7.023q12.434,6.766,24.546,14.125,24.1,14.644,46.688,31.524,11.71,8.754,22.937,18.081,10.442,8.665,20.461,17.795c1.428,1.3,3.561-.8,2.133-2.1-1.76-1.612-3.541-3.215-5.322-4.8q-7.545-6.706-15.331-13.156-14.2-11.781-29.133-22.651-23.223-16.914-48.045-31.534-12.4-7.3-25.149-13.986c-2.566-1.345-5.161-2.661-7.787-3.907a125.351,125.351,0,0,0-18.51-7.409,66.913,66.913,0,0,0-27.956-2.7,73.611,73.611,0,0,0-25.793,8.774c-16.9,9.288-30.008,23.65-42.764,37.666C191.556,358.707,193.678,360.814,194.976,359.39Z" transform="translate(480.066 -152.897)" fill="#e4e4e4"/>
  <path id="Path_78050" data-name="Path 78050" d="M1032.864,489.106l-40.5-14.564-20.107-7.231c-6.549-2.355-13.081-5.036-19.851-6.723a31.83,31.83,0,0,0-17.968.225,41.53,41.53,0,0,0-14.014,8.542,112.6,112.6,0,0,0-11.495,12.07c-4.378,5.173-8.691,10.4-13.023,15.61q-26.821,32.252-53.291,64.783t-52.585,65.339q-26.179,32.888-52,66.051-3.163,4.062-6.32,8.129c-1.163,1.5-3.785.021-2.606-1.5q26.01-33.5,52.383-66.718,26.437-33.3,53.24-66.32T888.7,501.05q6.767-8.155,13.557-16.291c3.818-4.576,7.594-9.2,11.782-13.46,7.687-7.817,17.292-14.726,28.788-14.913,6.76-.11,13.3,2,19.581,4.233,6.77,2.408,13.524,4.862,20.286,7.293l40.781,14.666,10.2,3.667c1.809.651,1.028,3.52-.8,2.861Z" transform="translate(-704.104 -141.367)" fill="#e4e4e4"/>
  <path id="Path_78051" data-name="Path 78051" d="M347.375,335.012c20.58-10.4,46.935-8.363,65.847,4.63a952.658,952.658,0,0,0-106.85,24.521C320.948,355.764,332.349,342.606,347.375,335.012Z" transform="translate(380.932 -151.477)" fill="#f2f2f2"/>
  <path id="Path_78052" data-name="Path 78052" d="M302.78,338.784l3.962,3.166c-1.34-1.108-2.733-2.147-4.165-3.131Z" transform="translate(491.576 -150.655)" fill="#f2f2f2"/>
  <path id="Path_78053" data-name="Path 78053" d="M961.844,487.7c3.987-4.771,8.3-9.767,14.259-11.705l5.567.216A624.2,624.2,0,0,1,813.482,665.273Z" transform="translate(-743.996 -139.818)" fill="#f2f2f2"/>
  <path id="Path_78054" data-name="Path 78054" d="M537.143,450.367a40.468,40.468,0,0,1-16.385,22.613c-3.095,2.072-6.756,4.059-7.815,7.59a8.909,8.909,0,0,0,.959,6.636,26.91,26.91,0,0,0,4.237,5.44l.15.552c7.68-4.475,14.986-10.135,19.228-17.858s4.834-17.845-.374-24.973" transform="translate(26.882 -141.842)" fill="#f2f2f2"/>
  <path id="Path_78055" data-name="Path 78055" d="M770.143,653.367a40.467,40.467,0,0,1-16.384,22.613c-3.095,2.072-6.756,4.059-7.815,7.59a8.909,8.909,0,0,0,.959,6.636,26.906,26.906,0,0,0,4.237,5.439l.15.552c7.68-4.475,14.986-10.135,19.228-17.858s4.834-17.845-.375-24.973" transform="translate(-461.802 -125.809)" fill="#f2f2f2"/>
  <path id="Path_78056" data-name="Path 78056" d="M305.143,639.367a40.469,40.469,0,0,1-16.385,22.613c-3.095,2.072-6.756,4.059-7.815,7.59a8.909,8.909,0,0,0,.959,6.636,26.906,26.906,0,0,0,4.237,5.439l.15.552c7.68-4.475,14.986-10.135,19.228-17.858s4.834-17.845-.374-24.973" transform="translate(513.469 -126.915)" fill="#f2f2f2"/>
  <ellipse id="Ellipse_213" data-name="Ellipse 213" cx="55.965" cy="55.028" rx="55.965" ry="55.028" transform="translate(175.453)" fill="#23a2a4"/>
  <path id="Path_78057" data-name="Path 78057" d="M879.977,176.336c27.123-3.6,58.088,10.81,65.118,36.819a23.822,23.822,0,0,1,45.094,2.275l-3.105,2.187a415.314,415.314,0,0,1-176.3-.784C829.652,197.337,852.854,179.941,879.977,176.336Z" transform="translate(-749.554 -163.529)" fill="#f0f0f0"/>
  <path id="Path_78058" data-name="Path 78058" d="M773.977,244.336c27.123-3.6,58.089,10.81,65.118,36.819a23.823,23.823,0,0,1,45.094,2.275l-3.105,2.187a415.311,415.311,0,0,1-176.3-.784C723.652,265.337,746.854,247.941,773.977,244.336Z" transform="translate(-527.235 -158.158)" fill="#f0f0f0"/>
  <path id="Path_78059" data-name="Path 78059" d="M179.151,262.53a1.1,1.1,0,0,0,.331-.051C469.635,172.257,725.361,184.056,888.8,209.84c22.242,3.508,44.543,7.559,66.284,12.043,5.551,1.143,11.309,2.369,17.115,3.645,6.934,1.518,13.776,3.082,20.336,4.646q4.25.99,8.334,1.995c4.124,1,8.309,2.044,12.795,3.191,5.013,1.271,10.106,2.6,15.141,3.962a.487.487,0,0,0,.056.016h0c5.687,1.527,11.344,3.1,16.815,4.667,2.961.841,5.82,1.67,8.559,2.489.306.083.577.163.852.245l.588.176c.341.1.677.2,1.014.3l.021.006h0l.891.272c1.062.316,2.1.625,3.117.932,26.934,8.164,41.741,13.972,41.888,14.029a1.1,1.1,0,0,0,1.427-.6,1.073,1.073,0,0,0-.61-1.4c-.147-.057-15.027-5.894-42.059-14.089-1.023-.309-2.062-.617-3.127-.935l-.827-.253c-.028-.011-.057-.019-.086-.027-.335-.094-.669-.194-1.009-.3l-.589-.176c-.294-.087-.583-.174-.879-.254-2.72-.813-5.589-1.645-8.557-2.489-5.473-1.57-11.135-3.141-16.827-4.67-.018-.006-.036-.011-.054-.016h0c-5.053-1.362-10.164-2.7-15.193-3.976-4.493-1.147-8.686-2.193-12.817-3.2q-4.1-1-8.35-2c-6.568-1.566-13.424-3.132-20.37-4.653-5.815-1.277-11.583-2.506-17.143-3.65-21.775-4.491-44.111-8.549-66.387-12.062-163.669-25.822-419.76-37.639-710.321,52.713a1.078,1.078,0,0,0-.754,1.193,1.092,1.092,0,0,0,1.084.914Z" transform="translate(-169.143 -162.478)" fill="#ccc"/>
  <path id="Path_78073" data-name="Path 78073" d="M171.246,735.455l941.256.332a1.285,1.285,0,1,0,0-2.57l-941.256-.332a1.285,1.285,0,1,0,0,2.57Z" transform="translate(-169.939 -119.529)" fill="#cacaca"/>
</svg>
