<svg xmlns="http://www.w3.org/2000/svg" xmlns:xlink="http://www.w3.org/1999/xlink" width="94.902" height="90.422" viewBox="0 0 94.902 90.422">
  <defs>
    <filter id="ashkan-forouzani-l-NIPb-9Njg-unsplash" x="0" y="0" width="94.902" height="90.422" filterUnits="userSpaceOnUse">
      <feOffset dy="3" input="SourceAlpha"/>
      <feGaussianBlur stdDeviation="3" result="blur"/>
      <feFlood flood-color="#f0f4fc"/>
      <feComposite operator="in" in2="blur"/>
      <feComposite in="SourceGraphic"/>
    </filter>
  </defs>
  <g id="Group_40370" data-name="Group 40370" transform="translate(9 6.461)">
    <g id="Group_111" data-name="Group 111" transform="translate(0 0)">
      <g transform="matrix(1, 0, 0, 1, -9, -6.46)" filter="url(#ashkan-forouzani-l-NIPb-9Njg-unsplash)">
        <g id="ashkan-forouzani-l-NIPb-9Njg-unsplash-2" data-name="ashkan-forouzani-l-NIPb-9Njg-unsplash" transform="translate(9 6)" fill="#90d0d1" stroke="#23a2a4" stroke-width="2">
          <rect width="76.902" height="72.422" rx="12" stroke="none"/>
          <rect x="1" y="1" width="74.902" height="70.422" rx="11" fill="none"/>
        </g>
      </g>
    </g>
    <g id="svgexport-7_11_" data-name="svgexport-7 (11)" transform="translate(14 -12.461)">
      <g id="Group_41459" data-name="Group 41459" transform="translate(0 27)">
        <g id="Group_41458" data-name="Group 41458">
          <path id="Path_78697" data-name="Path 78697" d="M42,27H6.651A6.659,6.659,0,0,0,0,33.651v22.8a6.659,6.659,0,0,0,6.651,6.651H16.3a.95.95,0,1,0,0-1.9H6.651A4.756,4.756,0,0,1,1.9,56.456v-22.8A4.756,4.756,0,0,1,6.651,28.9H42a4.756,4.756,0,0,1,4.751,4.751v22.8A4.756,4.756,0,0,1,42,61.207H35.049a.95.95,0,0,0-.95.95v5.118l-5.789-5.789a.95.95,0,0,0-.672-.278H25.37a.95.95,0,0,0,0,1.9h1.874l7.133,7.133A.95.95,0,0,0,36,69.568V63.107h6a6.659,6.659,0,0,0,6.651-6.651v-22.8A6.659,6.659,0,0,0,42,27Z" transform="translate(0 -27)" fill="#fff" stroke="#fff" stroke-width="1"/>
        </g>
      </g>
      <g id="Group_41461" data-name="Group 41461" transform="translate(19.498 61.207)">
        <g id="Group_41460" data-name="Group 41460">
          <path id="Path_78698" data-name="Path 78698" d="M206.822,387.278a.949.949,0,1,0,.279.672A.957.957,0,0,0,206.822,387.278Z" transform="translate(-205.2 -387)" fill="#fff" stroke="#fff" stroke-width="1"/>
        </g>
      </g>
      <g id="Group_41463" data-name="Group 41463" transform="translate(5.075 34.601)">
        <g id="Group_41462" data-name="Group 41462" transform="translate(0 0)">
          <path id="Path_78699" data-name="Path 78699" d="M91.334,107.133a.951.951,0,0,0-.941-.016l-9.235,5.06v-.4a4.4,4.4,0,0,0-4.4-4.4H57.811a4.4,4.4,0,0,0-4.4,4.4v11.345a4.4,4.4,0,0,0,4.4,4.4H76.758a4.4,4.4,0,0,0,4.4-4.4v-.4l9.235,5.06a.95.95,0,0,0,1.407-.833v-19A.95.95,0,0,0,91.334,107.133ZM79.257,113.78v9.344a2.5,2.5,0,0,1-2.5,2.5H57.811a2.5,2.5,0,0,1-2.5-2.5v-.162h7.169a.95.95,0,0,0,0-1.9H55.312v-9.283a2.5,2.5,0,0,1,2.5-2.5H76.758a2.5,2.5,0,0,1,2.5,2.5ZM89.9,125.35l-8.742-4.789v-6.218l8.742-4.789Z" transform="translate(-53.412 -107)" fill="#fff" stroke="#fff" stroke-width="1"/>
        </g>
      </g>
      <g id="Group_41465" data-name="Group 41465" transform="translate(16.493 48.664)">
        <g id="Group_41464" data-name="Group 41464" transform="translate(0 0)">
          <path id="Path_78700" data-name="Path 78700" d="M174.53,255h-.009a.955.955,0,1,0,.009,0Z" transform="translate(-173.575 -255)" fill="#fff" stroke="#fff" stroke-width="1"/>
        </g>
      </g>
    </g>
  </g>
</svg>
