<svg xmlns="http://www.w3.org/2000/svg" width="28.532" height="36.041" viewBox="0 0 28.532 36.041">
  <g id="Treatment" transform="translate(-4.5 -1.5)">
    <path id="Path_78263" data-name="Path 78263" d="M28.778,7.006H27.526V5.754A1.251,1.251,0,0,0,26.275,4.5h-2.5V3.251A1.251,1.251,0,0,0,22.521,2H15.012A1.251,1.251,0,0,0,13.76,3.251V4.5h-2.5a1.251,1.251,0,0,0-1.251,1.251V7.006H8.754A3.759,3.759,0,0,0,5,10.76V33.287a3.759,3.759,0,0,0,3.754,3.754H28.778a3.759,3.759,0,0,0,3.754-3.754V10.76A3.759,3.759,0,0,0,28.778,7.006Zm-16.269,0h2.5a1.251,1.251,0,0,0,1.251-1.251V4.5h5.006V5.754a1.251,1.251,0,0,0,1.251,1.251h2.5v2.5H12.509ZM30.029,33.287a1.253,1.253,0,0,1-1.251,1.251H8.754A1.253,1.253,0,0,1,7.5,33.287V10.76A1.253,1.253,0,0,1,8.754,9.509h1.251V10.76a1.251,1.251,0,0,0,1.251,1.251H26.275a1.251,1.251,0,0,0,1.251-1.251V9.509h1.251a1.253,1.253,0,0,1,1.251,1.251Z" transform="translate(0 0)" fill="#212123" stroke="#fff" stroke-width="1"/>
    <path id="Path_78264" data-name="Path 78264" d="M14.251,16.006H15.5v1.251a1.251,1.251,0,0,0,2.5,0V16.006h1.251a1.251,1.251,0,1,0,0-2.5H18.006V12.251a1.251,1.251,0,0,0-2.5,0V13.5H14.251a1.251,1.251,0,1,0,0,2.5Z" transform="translate(2.012 2.263)" fill="#212123" stroke="#fff" stroke-width="1"/>
    <path id="Path_78265" data-name="Path 78265" d="M23.766,18H11.251a1.251,1.251,0,0,0,0,2.5H23.766a1.251,1.251,0,0,0,0-2.5Z" transform="translate(1.257 4.023)" fill="#212123" stroke="#fff" stroke-width="1"/>
    <path id="Path_78266" data-name="Path 78266" d="M23.766,21H11.251a1.251,1.251,0,1,0,0,2.5H23.766a1.251,1.251,0,0,0,0-2.5Z" transform="translate(1.257 4.778)" fill="#212123" stroke="#fff" stroke-width="1"/>
    <path id="Path_78267" data-name="Path 78267" d="M23.766,24H11.251a1.251,1.251,0,0,0,0,2.5H23.766a1.251,1.251,0,0,0,0-2.5Z" transform="translate(1.257 5.532)" fill="#212123" stroke="#fff" stroke-width="1"/>
  </g>
</svg>
