<svg xmlns="http://www.w3.org/2000/svg" width="12.797" height="16.06" viewBox="0 0 12.797 16.06">
  <g id="unlock" transform="translate(-52 0)">
    <g id="Group_39763" data-name="Group 39763" transform="translate(52 0)">
      <g id="Group_39762" data-name="Group 39762">
        <path id="Path_78044" data-name="Path 78044" d="M62.915,5.9H56.265V3.318a2.134,2.134,0,0,1,4.266,0v1.2h1.255v-1.2a3.388,3.388,0,0,0-6.775,0V5.9H53.882A1.884,1.884,0,0,0,52,7.779v6.4a1.884,1.884,0,0,0,1.882,1.882h9.033A1.884,1.884,0,0,0,64.8,14.178v-6.4A1.884,1.884,0,0,0,62.915,5.9Zm.627,8.281a.628.628,0,0,1-.627.627H53.882a.628.628,0,0,1-.627-.627v-6.4a.628.628,0,0,1,.627-.627h9.033a.628.628,0,0,1,.627.627Z" transform="translate(-52 0)" fill="#23a2a4"/>
      </g>
    </g>
    <g id="Group_39765" data-name="Group 39765" transform="translate(57.238 8.971)">
      <g id="Group_39764" data-name="Group 39764">
        <path id="Path_78045" data-name="Path 78045" d="M220.161,286a1.16,1.16,0,0,0-.628,2.136v1.377a.627.627,0,0,0,1.255,0v-1.376a1.16,1.16,0,0,0-.626-2.137Z" transform="translate(-219 -286)" fill="#23a2a4"/>
      </g>
    </g>
  </g>
</svg>
