<svg id="_674aaa8a5939fb3fb007e77121fb1581" data-name="674aaa8a5939fb3fb007e77121fb1581" xmlns="http://www.w3.org/2000/svg" width="14.501" height="14.58" viewBox="0 0 14.501 14.58">
  <path id="Path_2" data-name="Path 2" d="M687.166,570.835a7.345,7.345,0,0,0-3.433-5.405.729.729,0,1,0-.763,1.243A5.873,5.873,0,0,1,685.718,571a.73.73,0,0,0,.724.65.756.756,0,0,0,.081,0A.729.729,0,0,0,687.166,570.835Z" transform="translate(-672.67 -557.066)" fill="#23a2a4"/>
  <path id="Path_3" data-name="Path 3" d="M21.62,11.674a4.374,4.374,0,1,0-8.5,1.443.729.729,0,1,0,1.376-.479,2.917,2.917,0,1,1,2.754,1.953A7.277,7.277,0,0,0,10,21.071a.729.729,0,0,0,.645.8.75.75,0,0,0,.081,0,.728.728,0,0,0,.724-.65,5.819,5.819,0,0,1,5.8-5.183A4.379,4.379,0,0,0,21.62,11.674Z" transform="translate(-9.995 -7.3)" fill="#23a2a4"/>
</svg>
